<?xml version="1.0" encoding="utf-8"?>
<!-- Generator: Adobe Illustrator 21.1.0, SVG Export Plug-In . SVG Version: 6.00 Build 0)  -->
<svg version="1.1" id="close" xmlns="http://www.w3.org/2000/svg" xmlns:xlink="http://www.w3.org/1999/xlink" x="0px" y="0px"
	 viewBox="0 0 100 100" style="enable-background:new 0 0 100 100;" xml:space="preserve">

<g>
<path d="M93.3,24.8H6.7c-3.7,0-6.7-3-6.7-6.7v0c0-3.7,3-6.7,6.7-6.7h86.7c3.7,0,6.7,3,6.7,6.7v0C100,21.8,97,24.8,93.3,24.8z"/>
<path d="M93.3,54.8H6.7c-3.7,0-6.7-3-6.7-6.7v0c0-3.7,3-6.7,6.7-6.7h86.7c3.7,0,6.7,3,6.7,6.7v0C100,51.8,97,54.8,93.3,54.8z"/>
<path d="M93.3,84.8H6.7c-3.7,0-6.7-3-6.7-6.7v0c0-3.7,3-6.7,6.7-6.7h86.7c3.7,0,6.7,3,6.7,6.7v0C100,81.8,97,84.8,93.3,84.8z"/>
</g>

<g>
<path d="M59.6,50L98,11.6c2.7-2.7,2.7-7,0-9.6v0c-2.7-2.7-7-2.7-9.6,0L50,40.4L11.6,2C8.9-0.7,4.6-0.7,2,2v0c-2.7,2.7-2.7,7,0,9.6
	L40.4,50L2,88.4c-2.7,2.7-2.7,7,0,9.6v0c2.7,2.7,7,2.7,9.6,0L50,59.6L88.4,98c2.7,2.7,7,2.7,9.6,0v0c2.7-2.7,2.7-7,0-9.6L59.6,50z"
	/>
  </g>
</svg>
