<?xml version="1.0" encoding="utf-8"?>
<!-- Generator: Adobe Illustrator 21.1.0, SVG Export Plug-In . SVG Version: 6.00 Build 0)  -->
<svg version="1.1" id="Ebene_1" xmlns="http://www.w3.org/2000/svg" xmlns:xlink="http://www.w3.org/1999/xlink" x="0px" y="0px"
	 viewBox="0 0 100 100" style="enable-background:new 0 0 100 100;" xml:space="preserve">
<path d="M93.3,24.8H6.7c-3.7,0-6.7-3-6.7-6.7v0c0-3.7,3-6.7,6.7-6.7h86.7c3.7,0,6.7,3,6.7,6.7v0C100,21.8,97,24.8,93.3,24.8z"/>
<path d="M93.3,54.8H6.7c-3.7,0-6.7-3-6.7-6.7v0c0-3.7,3-6.7,6.7-6.7h86.7c3.7,0,6.7,3,6.7,6.7v0C100,51.8,97,54.8,93.3,54.8z"/>
<path d="M93.3,84.8H6.7c-3.7,0-6.7-3-6.7-6.7v0c0-3.7,3-6.7,6.7-6.7h86.7c3.7,0,6.7,3,6.7,6.7v0C100,81.8,97,84.8,93.3,84.8z"/>
</svg>
