
<svg xmlns="http://www.w3.org/2000/svg" viewBox="0 0 440 100">

    <symbol id="icon-gp-ampersand-01" viewBox="0 0 512 512">
      <path d="m336 332c-7-9-14-17-20-25 0-1 0-1 0-2 10-11 14-25 17-39 3-11-5-21-15-19-7 1-13 5-17 11-4 7-8 14-11 21-5 15-16 26-27 36-5 4-10 7-16 8-10 2-20 2-30-1-12-3-15-10-14-23 1-3 1-6 3-9 0-3 2-5 3-7 11-8 22-17 35-23 8-3 17-7 25-11 18-8 32-20 38-39 6-17-1-29-8-42-1-1-2-2-2-2-8-7-16-12-26-15-7-3-14-5-22-3-20 4-39 11-57 22-9 5-14 13-15 23-1 6-1 11-2 17-2 16 0 32 13 44 1 1 1 2 2 2-1 1-2 2-2 2-7 7-12 15-15 24-3 13-4 27 0 39 2 7 7 13 10 19 7 11 17 17 28 23 3 1 6 2 10 2 16 0 31-2 47-7 4-1 8-4 12-7 6-6 11-13 17-21 3 4 7 8 10 13 3 6 8 11 14 15 9 5 20-1 21-12 0-5-3-10-6-14z m-131-124c3-5 5-10 8-15 2-3 6-5 9-6 13-4 26-4 40-3 5 1 8 4 9 8 1 5 3 10 3 15 1 1 0 3-1 4-5 4-10 8-16 10-10 6-21 11-32 16-3 1-4 1-6 0-10-4-15-11-16-22 1-2 1-5 2-7z"/>
    </symbol>

    <symbol id="icon-gp-ampersand-02" viewBox="0 0 512 512">
      <path d="m225 117c-4-1-9-1-13-2-4 0-7-3-7-8 0-1 0-2-1-3-4-3-4-7-2-12 7-21 15-43 23-64 1-4 4-7 8-7 5 0 9 1 11 6 2 3 3 6 4 8 4 14 8 27 13 40 3 8 7 16 11 23 5 10 2 16-8 17-13 1-26 1-39 1 0 0 0 1 0 1z m19 285c12-2 25-3 37-4 5-1 8 0 11 4 3 4 2 8 0 12-12 20-24 41-28 65-1 5-4 8-9 9-5 0-8-2-11-7-10-20-21-40-31-60-4-7 0-18 8-19 7-2 15-2 23-2 0 0 0 1 0 2z m100-53c-4-18-13-33-27-45-1-1-2-3-1-4 5-12 11-25 17-37 2-4 3-8 0-11-3-4-8-5-12-2-3 3-7 5-9 9-6 9-11 18-15 27-2 4-4 8-6 12-5 8-11 16-15 25-3 6-8 11-15 12-20 5-41 7-62 2-7-1-9-4-9-11-1-10-1-20 0-29 0-9 1-19 10-24 9-5 18-11 28-15 17-8 34-15 50-23 11-5 21-11 26-22 5-13 7-26 5-40 0-4-2-8-6-10-15-9-30-15-47-16-23 0-45 3-64 15-20 12-26 38-13 57 5 8 13 14 20 21 1 2 3 3 5 5-6 3-10 6-15 10-10 6-17 14-19 26-3 17-3 33-2 49 1 13 9 24 21 27 27 9 54 7 81-1 13-3 22-12 26-24 2-4 5-8 7-12 0 0 1 0 2 0 1 1 2 3 4 5 7 8 11 18 14 28 2 8 7 12 13 10 7-1 10-7 8-14z m-104-161c-3 4-7 5-11 0 4 0 7 0 11 0z"/>
    </symbol>

    <symbol id="icon-gp-ampersand-03" viewBox="0 0 512 512">
      <path d="m197 252c-5-5-9-10-13-15-9-11-16-24-17-39-1-9 1-18 6-25 5-6 10-12 15-18 10-11 24-14 38-8 6 3 12 5 19 6 6 2 12 4 17 7 8 5 12 13 12 23 1 24-9 43-26 59-4 3-4 5 0 8 14 12 28 23 42 35 1 1 1 1 3 1 1-11 7-22 2-33-2-5-3-10-3-15 0-3 2-6 3-10 1-2 1-4 3-6 1-1 3-3 5-3 1-1 3 2 4 3 1 2 3 5 4 7 1 1 2 3 2 4 2 6 4 12 6 17 5 15 5 31 3 47-1 0-1 1-1 2-2 6-2 6 3 10 6 4 12 7 20 9 4 1 8 3 11 6 1 1 2 4 2 6 0 1-3 2-5 4-1 1-3 1-3 2-3 5-7 8-12 7-6 0-11-2-13-9-1-1-3-2-4-3-5-2-10-2-14-4-3-1-5 0-7 2-16 18-36 30-58 37-13 4-27 3-39-3-4-2-9-3-13-4-11-4-17-11-19-22-1-3-2-6-4-8-15-16-15-38 1-52 6-7 14-12 21-17 3-3 6-5 9-8z m81 63c-2-1-3-2-4-2-22-12-43-25-60-43-1-2-3-2-5 0-8 8-17 16-26 25-9 10-9 12 2 20 16 12 33 19 51 21 18 1 29-10 42-21z m-52-94c3-3 5-6 7-9 12-11 5-33-5-41-5-2-9-1-13 0-3 1-4 5-4 8-1 16 8 28 15 42z m-33-40c-1 1-2 2-2 2-7 8-5 16-2 24 4 11 12 21 20 29 1 1 3 1 4 2 0-2 1-3 0-4-2-4-4-7-6-11-6-11-12-21-13-34-1-2-1-5-1-8z"/>
    </symbol>

    <symbol id="icon-gp-ampersand-04" viewBox="0 0 512 512">
      <path d="m301 330c-3 6-6 10-9 13-8 11-19 18-33 19-33 4-62-6-85-30-12-12-17-28-14-45 1-6 4-13 8-18 7-9 16-16 26-21 2-1 3-2 4-3 0 0 0 0 1-1-1-1-3-3-4-4-7-8-14-15-21-23-10-13-10-30 1-43 12-14 27-23 45-26 24-3 46 17 47 41 1 21-7 38-23 51-3 3-7 6-12 10 20 16 39 32 59 49 1-3 1-5 1-7 1-11 2-22 3-33 1-3 1-6 6-7 4 0 4 4 5 7 2 16 4 31 2 47-1 4 1 7 4 10 12 11 24 23 36 35 6 6 6 12 2 17-4 5-13 5-18 1-4-2-7-5-5-10 0 0 0-2-1-2-8-9-16-17-25-27z m-59 14c23 0 33-6 41-19 3-4 3-6-1-9-5-3-9-7-14-11-16-14-33-28-50-43-1-1-4-3-5-2-12 6-23 12-31 22-1 2-3 5-3 8-1 12 2 22 11 31 16 15 35 22 52 23z m6-151c0-16-13-29-28-25-12 2-22 9-30 18-6 6-6 13 0 20 5 7 12 14 18 20 10 10 10 10 21 1 12-9 19-19 19-34z"/>
    </symbol>

    <symbol id="icon-gp-ampersand-05" viewBox="0 0 512 512">
      <path d="m212 243c-1-4-3-9-6-13-1-2-3-4-5-5-11-7-10-18-6-26 1-4 4-7 6-11 2-4 3-7 5-10 1-2 2-4 4-5 8-6 17-12 25-18 9-5 19-5 28-2 12 3 24 8 36 12 7 3 8 6 8 13-1 2 0 4 0 6 2 9 1 18-3 26-3 6-6 13-10 19-2 2-4 5-6 7-7 5-13 10-20 15-1 0-1 0-2 2 10 7 20 15 30 22 0-4-1-7-1-11 0-5-1-10 0-15 0-9 9-13 17-9 2 1 4 2 7 3 6 4 10 10 10 18 0 8-1 16-1 25 1 6-1 14 5 19 3 2 6 5 8 7 2 2 2 3 3 5 2 3 3 7 6 10 4 6 5 13 1 19-2 3-5 6-8 9-2 2-5 3-7 5-3 0-21-17-34-32 0 1-1 1-1 1-6 9-13 16-23 20-8 3-15 8-22 10-10 3-20 3-29-3-12-6-24-12-32-22-5-5-8-11-9-18-1-8-2-17-2-25 1-13 8-24 16-35 3-5 8-9 12-13z m20 27c-3 5-8 9-9 13-1 10-1 19 4 28 5 12 18 17 28 13 9-3 17-10 21-19 1-1 0-3-1-4-3-3-6-6-10-8-11-6-22-11-30-21-1 0-2-1-3-2z m-4-59c0 0-1 0-1 0 2 5 3 10 5 14 2 3 6 5 9 7 1 1 3 1 4 1 6-4 11-7 17-11 2-1 2-3 2-5 0-3 0-7 2-9 4-7 4-15 5-23 0-4-5-7-9-6-2 1-6 1-9 1-2 1-5 0-6 1-11 7-19 16-19 30z m-85 75c1 0 4 0 6 1 2 1 3 3 4 4-1 1-2 3-4 3-4 2-8 2-12 3-6 2-12 4-18 6-4 1-8 3-10-2-2-2 1-6 6-8 9-4 17-7 28-7z m7 99c-4 0-6-2-5-6 1-2 3-4 5-6 8-5 16-10 24-15 2-1 5-1 7 2 1 3 0 5-2 6-8 6-17 12-25 17-1 1-3 1-4 2z m229-120c5 1 11 2 17 3 1 1 3 2 4 3 3 1 5 4 3 6-1 2-4 4-6 4-8-2-16-4-25-6-2 0-4-3-3-6 0-3 3-3 5-3 2 0 3 0 5 0 0-1 0-1 0-1z m-15-108c-2 2-3 5-6 7-6 5-12 10-18 14-4 3-9 2-10-1 0-2 0-4 1-5 7-7 15-13 25-16 2-1 4 0 7 0 0 0 0 0 1 1z m-150 244c0-1 0-1 0-2 4-10 9-19 18-24 2-1 4 0 6 0 0 2 1 4 0 5-5 7-9 14-14 21-2 2-4 3-6 3-3 1-4-1-4-3z m88-28c-1 9-2 18-4 26 0 1-3 4-4 4-2 0-4-3-4-5-1-3-1-7 0-10 1-5 2-10 4-15 1-2 3-4 5-3 1 0 2 2 3 3z m64-152c-2-2-5-3-6-4-1-4 2-6 5-6 5-2 11-4 16-5 2 0 4 0 6 1 2 0 4 1 4 2 0 2-1 3-2 5-1 1-3 1-4 2-6 2-12 3-19 5z m-198-57c-1-1-2-1-3-1-5-3-10-6-15-9-1-1-3-2-3-3-1-2-1-5-1-7 2 0 4-1 6 0 6 4 13 8 18 12 2 1 2 3 2 5 0 1-2 2-4 3z m-20 73c-4-1-7-1-11-2-1-1-3-3-4-5 2-1 4-4 5-4 6 0 11 1 17 2 1 0 3 3 4 4 0 2-3 4-5 4-2 1-4 0-6 0 0 0 0 1 0 1z m72-113c0 1 0 2 0 3 0 2-1 5-4 5-2 0-4-2-5-4-1-5-2-11-2-16 0-2 2-4 3-4 2-1 5 1 5 2 2 5 3 9 4 14 0 0-1 0-1 0z m64 11c2-3 2-5 4-7 3-4 7-7 11-11 1-1 2 0 3-1 0 1 1 3 1 4-4 6-7 13-11 19-1 1-3 2-4 1-1-1-2-3-4-5z m105 240c-4 0-10-6-8-10 0-2 2-4 3-4 2 0 4 1 5 2 2 1 3 3 4 5 2 4 0 7-4 7z"/>
    </symbol>

    <symbol id="icon-gp-ampersand-06" viewBox="0 0 512 512">
      <path d="m220 250c-1-1-2-2-3-3-11-10-18-22-25-34-1-2-2-5-2-8 1-7 1-15 2-22 2-11 8-19 17-24 23-13 48-16 73-5 9 4 18 10 22 20 7 21 4 40-10 56-5 6-12 9-19 14-3 1-6 3-10 6 17 8 32 17 43 30 1 0 2 0 2 0 2-5 3-10 4-14 1-4 2-8 4-12 2-4 3-9 0-13-2-5 0-10 3-12 4-2 9-1 12 3 5 7 9 14 9 23 1 17-1 32-10 47-1 1-1 3-1 4 7 10 11 22 22 29 4 3 8 5 12 8 5 2 7 6 6 11-1 5-5 7-11 8-11 3-20 0-28-8-6-7-13-12-20-18 0 1-2 2-3 4-7 8-16 14-27 17-15 3-30 7-45 6-20 0-36-7-47-25-6-12-8-22-3-34 1-3 0-6 0-9 0-14 6-25 16-34 5-4 11-7 17-11z m22 90c6 0 11-1 16-1 17-2 29-10 35-26 3-7 2-11-4-15-14-10-29-20-44-29-2-2-4-1-6 0-13 9-21 21-27 34-1 1-1 3-1 4 0 6 0 12 1 17 0 2 1 5 3 6 8 6 16 12 27 10z m4-164c-11 0-21 5-28 16-3 7-3 19 1 24 7 6 15 12 22 18 1 1 4 1 5 1 17-10 32-21 36-42 1-4 0-6-3-8-9-5-19-9-33-9z m-99 151c4 1 9 2 13 3 4 1 6 4 5 8-1 2-4 4-6 4-8 2-16 3-24 4-5 0-9-2-10-6-1-5 1-9 6-10 5-1 10-2 16-3z m-1-87c-6-1-13-2-21-3-4 0-7-4-7-8 1-4 5-7 9-7 8 2 16 3 24 5 3 0 7 2 7 7-1 4-5 6-12 6z m13-53c-4-1-10-2-16-3-5-1-8-4-11-9-1-3-1-6 1-8 3-3 6-3 9-1 5 2 10 4 15 7 3 2 6 4 8 7 3 4 0 7-6 7z m235 115c0 7-6 11-12 8-6-3-11-7-17-12-1-1-2-5-2-7 1-2 5-4 7-4 9 0 16 5 22 11 1 1 1 3 2 4z m-217-190c1 1 4 2 5 3 4 5 8 10 11 15 1 1 2 3 3 4 1 5-1 8-6 8-8-1-20-15-21-22 0-4 3-8 8-8z m71 292c0 3 0 6-1 9 0 2-3 5-5 6-3 2-6 0-7-3-5-9-4-18-1-26 1-2 4-4 6-3 2 0 6 2 6 4 2 4 2 8 2 13 0 0 0 0 0 0z m-61-30c2 2 5 3 6 5 1 2-1 5-3 7-2 4-5 6-7 9-1 2-2 3-3 4-4 3-7 4-11 2-3-3-3-6-2-10 3-8 13-16 20-17z m-45-92c3 1 7 2 9 3 4 3 3 8-1 10-7 2-13 3-20 5-5 1-9-1-10-5-1-5 1-8 7-10 5-1 9-2 15-3z m222-117c0 0-1 3-3 4-5 4-11 7-17 11-4 2-7 0-9-3-2-3-2-7 1-9 6-6 13-9 21-11 4 0 7 3 7 8z m17 71c-6 0-10 0-14-1-2 0-4-1-5-2-2-2-4-5-3-7 0-2 3-5 5-5 6-1 12-1 18 0 4 1 7 5 6 9 0 4-4 6-7 6z m-66 163c-1 4-3 7-7 8-3 1-7-1-8-4-2-6-4-12-5-17-1-3 2-7 4-7 2-1 6 0 7 1 4 6 6 13 9 19z m-56-288c-1 4-1 8-2 11-1 2-5 4-7 4-2 0-5-3-5-5 0-6 0-12 0-18 1-4 3-7 8-7 4 1 5 4 5 8 0 2 0 4 0 7 1 0 1 0 1 0z m42 24c-1-1-3-2-4-4 0-2 0-5 2-7 3-3 7-6 11-9 2-3 6-3 8 0 2 2 3 5 2 7-1 6-12 13-19 13z"/>
    </symbol>

    <symbol id="icon-gp-ampersand-07" viewBox="0 0 512 512">
      <path d="m197 245c-4-4-8-7-12-11-1-1-2-2-4-3-13-10-16-23-13-37 3-18 13-29 30-34 11-4 22-9 34-10 27-4 51 4 71 22 10 10 18 22 15 37-2 12-5 22-14 31-9 9-18 15-30 19-11 4-23 9-34 14-8 3-16 7-24 11-3 2-6 5-5 10 0 5-2 12 2 15 7 5 14 9 23 9 13 0 24-5 32-16 12-14 21-28 30-44 3-7 8-12 17-10 1 1 3 1 3 0 6-2 10-1 15 1 6 3 8 7 6 13-4 9-9 17-13 26-2 2-4 4-5 6 1 2 4 5 6 8 5 9 11 19 15 29 1 3 4 6 6 8 2 4 5 6 6 10 2 5-1 9-7 9-6 1-13 0-19 0-2 0-3 1-4 1-8 1-10 0-14-7-2-4-4-7-6-11-2-2-3-4-5-6-4 5-7 10-10 14-4 3-7 7-12 9-23 11-46 7-70 3-8-2-14-7-20-12-6-6-12-12-18-19-2-2-3-6-4-9-2-4-3-7-4-11-7-14-4-31 7-42 5-4 8-9 13-13 5-4 10-6 16-10z m75-37c-3-5-6-10-11-12-6-2-13-3-19-4-3-1-6 0-9 1-3 1-5 3-8 5-2 2-5 5-7 7-2 3-2 6 0 9 5 6 9 12 14 18 1 1 3 2 3 1 11-6 22-12 32-18 2-2 3-4 5-7z m-14 134c-3 2-5 4-7 6 0 0 0 0 0 1 4-1 7-1 11-2-2-2-3-4-4-5z"/>
    </symbol>

    <symbol id="icon-gp-ampersand-08" viewBox="0 0 512 512">
      <path d="m192 232c-2-1-3-2-4-3-10-8-16-18-20-29-9-19-1-37 19-46 9-4 19-6 28-6 14 0 28 0 42 1 7 1 14 4 20 7 9 4 18 8 26 14 13 9 20 22 19 38-1 7 0 14-4 20-2 3-4 6-6 8 9 4 18 8 27 12 2 1 4 2 6 3 3 3 3 6 1 9-7 12-14 24-21 35-1 2-1 3 0 5 5 5 10 10 14 16 6 6 11 13 16 19 5 7 3 13-4 15-9 2-18 4-27 7-5 1-8 1-11-3-4-4-7-8-10-13 0 0-1-1-1-1-6 4-11 9-16 13-6 5-13 7-21 7-12 1-24 1-36-3-9-2-17-7-24-12-1-1-2-2-4-3-20-8-33-23-42-42-5-11-7-21-4-32 1-4 3-8 6-10 8-9 16-20 28-24 1 0 1-1 2-1 0 0 0-1 1-1z m117 18c-3-1-5-1-6-1-4-1-6 0-7 4-8 15-19 30-30 44-12 15-39 21-53 14-10-4-20-8-24-19-1-3-2-7-3-10-2-9 2-16 11-19 6-2 11-5 17-8 5-2 9-5 14-7 9-4 20-8 30-12 9-3 18-9 25-16 6-7 9-14 10-23 0-3 0-6-1-9-6-15-18-24-34-26-14-2-29-1-44-1-9 0-18 2-26 7-11 7-14 18-8 29 5 9 10 18 18 25 3 2 5 5 7 8 2 5 1 11-4 13-12 4-20 12-29 20-6 7-7 16-5 24 5 16 15 29 29 38 3 2 7 4 11 5 18 3 35 2 53-3 2-1 5-3 6-5 5-4 8-9 9-16 0-4 3-6 8-6 3 1 5 2 7 3 8 5 12 12 16 20 1 2 2 3 3 3 3 1 5 0 8 0 0-1 0-2-1-2-6-12-12-23-21-32-3-3-4-6-3-10 2-9 5-18 12-25 2-2 3-4 5-7z m-32 10c-2 1-4 1-4 1-14 6-28 12-41 18-3 1-6 3-9 5-2 2-3 4-2 7 1 3 1 6 2 10-1-1 0-1 0 0 1 0 1 0 2 0 11 0 21-2 29-10 5-6 11-13 16-19 2-4 4-7 7-12z m30-67c0 0-1 0-1 0 0 1-1 2-1 3-2 21-13 36-31 45-12 6-24 10-36 15-6 3-12 6-18 8-7 3-13 7-19 11-1 1-2 3-2 4 0 2 0 4 1 6 1 4 3 8 8 9 0-1 0-2 0-2-1-8 2-14 8-19 5-3 10-6 15-8 16-7 33-13 50-20 2-1 4-1 5-3 6-5 12-10 18-16 2-3 3-6 4-9 1-5 1-10 1-14 0-4-1-7-2-10z m16 59c-5 7-9 13-14 19-1 2-2 4-3 7-2 6 0 10 6 13 8-10 15-20 20-32 0-1 0-2-1-3-3-1-5-3-8-4z m-90 92c0 0 0 1 0 1 1 0 2 1 3 1 8 0 17 1 25 1 14 0 24-8 31-19 1-1 1-2 1-2-2-3-4-6-6-9-4 5-7 10-11 15-3 3-6 6-10 7-5 2-11 3-16 3-6 1-12 2-17 2z m103-11c-3 2-6 4-9 5-3 1-6 1-9 2 2 4 2 5 7 4 5-2 11-3 17-5-2-3-4-5-6-6z m-102-161c5 1 14 2 23 5 8 3 13 10 16 18 2 9-2 15-9 19-6 4-13 8-20 12-5 3-9 6-14 8-6 4-10 3-14-2-5-7-11-14-16-21-5-8-5-15 0-23 8-9 17-17 34-16z m0 45c5-3 10-5 15-8 4-2 7-4 10-7 1-1 2-4 2-5-2-5-6-9-11-10-8-3-15 1-22 6 0 0-1 2-1 3-2 8 2 15 7 21z m-17-4c1 0 1 0 1 0-3-8-3-15-1-24-6 4-9 9-7 12 2 5 5 8 7 12z"/>
    </symbol>

    <symbol id="icon-gp-ampersand-09" viewBox="0 0 512 512">
      <path d="m301 330c-4 7-8 12-13 18-5 6-13 8-21 9-16 2-33 4-49 1-8-1-14-3-21-8-17-12-29-28-35-48-3-13-3-27 9-37 3-3 6-7 9-10 5-4 10-7 15-11 2 0 3-1 5-2-1-2-2-3-3-4-10-8-16-18-21-30-9-20-1-40 20-49 8-3 17-5 25-6 18-2 35-2 53 1 19 4 35 14 43 33 4 9 4 17 2 26-6 21-21 34-41 42-12 5-24 9-36 14-8 3-16 7-23 11-4 2-6 4-9 7-1 1-2 2-2 3 1 9 4 14 12 18 12 6 25 8 37 1 5-2 9-6 12-10 12-13 22-28 30-44 1-2 2-4 4-6 3-3 6-5 11-4 6 1 13 1 19 2 7 2 9 7 6 12-4 7-8 13-12 20-1 2-3 4-4 7-4 6-3 9 1 15 5 7 10 14 14 20 4 6 8 12 11 18 5 6 3 11-5 13-7 1-16 2-24 2-2 1-5-2-7-5-3-3-5-8-7-12-2-2-3-4-5-7z m23-70c-2-1-4-1-5-1-5-2-7 0-9 4-8 17-19 33-31 46-5 5-10 10-15 12-16 8-32 9-48 0-8-4-15-8-18-17-2-3-2-7-3-11-2-9 2-17 11-20 6-2 12-5 18-8 5-2 9-5 14-7 11-5 22-9 34-13 9-4 16-9 24-15 8-9 12-19 11-30 0-2 0-4-1-5-6-17-19-25-35-28-15-2-31-1-46-1-10 0-20 2-28 8-11 7-15 18-9 30 5 10 11 19 19 26 3 2 5 6 7 9 3 5 2 11-4 13-12 5-21 13-29 22-8 7-8 16-6 24 5 17 15 31 30 41 4 3 9 4 14 5 15 3 30 1 45-1 7-1 14-3 18-10 3-4 5-8 6-13 1-6 4-8 10-7 2 0 5 1 7 3 8 5 12 13 16 21 1 2 3 3 4 3 2 1 5 0 8 0 0-1-1-2-1-2-7-12-13-24-23-34-2-3-3-7-3-10 2-9 5-17 11-24 2-3 5-6 7-10z m-83-84c10 2 19 3 28 7 9 3 15 10 17 19 3 8-1 15-8 19-12 8-25 16-39 23-5 3-8 2-12-3-6-8-12-16-18-24-4-6-4-13-1-20 2-3 5-6 7-9 8-6 15-12 26-11 0 0 0 0 0-1z m0 12c-2 1-4 1-6 2-2 1-4 3-6 4-2 3-5 5-7 7-4 4-4 7-1 11 4 5 9 11 13 17 1 2 3 2 5 1 9-6 19-12 29-18 2-1 4-2 5-3 0-2 1-4 0-5-2-4-5-9-9-10-7-3-15-4-23-6z"/>
    </symbol>

    <symbol id="icon-gp-ampersand-10" viewBox="0 0 512 512">
      <path d="m256 259c6 4 11 7 17 11 1-3 2-5 2-8 1-2 1-4 1-6 1-4 5-6 9-3 1 0 2 1 3 1 5-3 10-1 15 0 6 2 11 4 16 6 6 2 8 7 8 13 1 11-1 21-5 31 0 0 0 1-1 1 7 4 13 8 19 12 6 4 7 9 3 15-3 5-6 11-11 15-1 1-2 2-2 3-3 6-7 10-12 14-4 3-8 2-13-1-8-6-15-12-23-17 0-1-1-1-1-1-4 3-7 6-11 9-5 6-12 7-19 9-16 4-32 1-47-4-13-5-23-13-31-25-4-5-5-12-6-18-1-15 1-30 8-44 4-7 11-11 18-15 1 0 2-1 3-1-2-3-3-6-5-9-7-13-10-28-10-43 0-4 1-10 3-14 5-9 9-19 17-26 6-6 12-11 21-11 6-1 11-3 17-4 12-2 23 2 30 12 1 0 1 1 2 1 8 6 13 14 17 23 6 10 6 20 0 30-3 6-7 12-10 18-4 7-10 12-15 18-2 3-4 5-7 8z m31 7c-1 1-1 2-1 3-2 4-3 9-4 14-1 3-2 5-5 5-3 0-5-1-6-3-1-2-3-4-4-5-3-2-5-3-8-5-6-4-13-7-16-15 0 0-1 0-1-1-5-2-6-6-3-11 3-4 6-9 9-14 4-7 11-13 14-22 2-7 4-14-1-21-2-4-3-9-5-12-7-9-15-12-26-9-5 1-9 1-13-1-1-1-3 0-4 1-9 7-14 18-19 27-2 2-1 6-2 8 0 9 3 17 5 26 1 4 3 7 5 11 2 3 4 6 6 9 1 3 2 5 0 7-2 3-5 5-8 7-6 3-13 6-17 14-4 11-7 22-5 34 0 4 1 8 2 11 5 10 12 16 22 21 11 6 23 9 36 8 12-1 22-3 30-12 7-8 12-8 21-3 1 0 1 1 2 1 3 3 6 5 9 7 2 1 4 2 6 4 2-5 4-10 7-14 1-2 1-4-1-5-7-5-13-9-17-17 0-1-1-1-1-2-2-2-3-4-4-6 0-8 3-14 5-20 1-4 2-8 3-12 0 0-1-1-1-2-3-2-7-4-10-6z m-49 69c-5 0-10 1-13-1-8-4-16-9-21-16-5-5-5-15-1-21 5-7 9-14 16-19 1-1 1-2 2-3 2-2 4-3 8-2 2 1 4 3 4 6-1 6 1 9 5 13 9 8 17 17 25 25 4 5 3 9-3 11-2 0-3 1-4 2-3 4-6 5-10 5-3 0-5 0-8 0 0 0 0 0 0 0z m-8-37c-3 3-5 5-6 8-3 4-1 9 4 10 3 1 5 2 8 3 4 2 8 1 13 1 0 0 0 0 0-1-6-7-13-14-19-21z m-17-91c-2-14 15-25 26-22 1 0 3 1 4 2 1 0 2 1 3 1 5 0 7 4 6 8 0 10-1 20-8 29-4 4-7 8-10 13-2 2-4 4-7 3-4 0-5-3-5-6-2-4-4-9-6-13-1-5-2-10-4-15 1 0 1 0 1 0z m14 5c2 1 4 1 5 2 1 1 1 3 2 5 1-1 1-1 1-2 6-6 6-13 7-21 0 0-1-2-2-2-2 0-4 0-4 1-3 4-6 8-8 12-1 2-1 4-1 5z"/>
    </symbol>

    <symbol id="icon-gp-ampersand-11" viewBox="0 0 512 512">
      <path d="m326 247c1 3 2 5 3 7 12 19 11 39 1 58-1 3-3 5-4 7-11 12-23 23-38 29-8 4-18 6-27 8-12 2-24 3-37 3-16 1-30-4-44-12-5-2-10-6-15-9-3-2-6-4-7-7-14-18-20-39-17-61 3-20 14-33 31-42 4-2 4-3 3-7-4-19-3-38 12-53 2-2 5-4 8-6 12-6 25-11 39-9 11 0 22 1 33 5 9 3 16 8 21 17 5 9 4 29-6 37-4 4-9 6-14 6-11 0-22-1-31-7-7-5-8-9-5-16 2-3 4-3 7-3 4 1 9 2 14-3-4-1-7-2-10-3-2 0-4 0-6 0-12-2-19 1-25 12-3 6-2 12 1 17 1 1 3 2 5 2 8 2 16 3 24 8 5 3 7 7 6 13 0 4-1 7-2 11-2 7-9 12-16 12-11 0-21-4-30-9-3-2-5-3-7-5-1 1-1 2-2 3-5 15-8 30 0 45 5 7 11 13 19 17 15 6 30 5 45 3 7-1 14-2 22-4 10-1 17-7 22-16 7-10 10-21 4-33-2-4-6-9-10-12-4-4-9 0-14 2-3 1-4 4-4 7 0 3 2 4 5 4 5-1 9 1 13 3 9 5 9 10 7 18-1 7-9 11-17 9-11-2-15-7-14-17 0-2-1-5-3-8-4-7-2-19 4-24 6-5 12-10 18-15 2-2 5-3 7-3 12-4 24-8 35-12 8-3 12-10 14-19 0-1-1-3-2-4-1 1-3 2-3 3-4 10-12 14-21 11-5-3-9-8-10-14 0-2 0-3 0-5-1-12 4-18 18-19 19-2 33 7 43 22 2 2 2 5 2 8 1 9 0 18-4 27-2 2-4 5-6 7-8 6-17 10-26 13-3 1-6 2-9 3z m-11 12c5 15 3 29-5 42-7 12-17 20-31 23-12 2-25 4-38 5-21 2-39-3-55-18-14-14-15-32-13-50 2-8 3-17 11-23-2 0-3-1-5 0-12 6-22 15-25 29-1 5-1 10-1 14 0 23 8 41 29 52 14 7 28 14 43 12 16-1 31-4 47-6 4 0 8-2 11-4 9-5 17-11 25-18 16-13 21-40 7-58z m-58-58c13 3 18-1 18-13 0-7-5-13-14-16-19-5-38-7-57 3-2 1-5 4-7 6-7 7-8 16-8 25 0 18 10 28 23 37 1 0 1 0 2 0-4-7-7-14-11-21-12-21 3-44 21-47 12-3 23-1 34 4 8 5 9 14 2 20-1 0-2 1-3 2z m47 33c18 2 35-3 49-14 1 0 1-1 2-2 3-7 4-13 3-20 0-1-1-3-2-4-1 4-1 7-3 11-5 11-14 20-27 22-8 2-15 5-22 7z m-82-1c3 4 7 8 11 12 4-8 2-12-11-12z m110-53c-8-1-12 2-10 9 0 1 1 2 2 3 1 0 2-1 2-2 2-3 4-6 6-10z m-52 93c-1 7 2 10 6 9 1 0 2-1 3-2 0-1-1-3-1-3-2-1-5-3-8-4z"/>
    </symbol>

    <symbol id="icon-gp-ampersand-12" viewBox="0 0 512 512">
      <path d="m295 337c-1 2-2 3-4 5-5 6-13 9-21 12-16 6-33 3-50 1-8-1-16-4-23-9-5-3-10-8-13-14-1-2-2-4-3-5-4-5-5-10-5-16 0-6 0-14 1-20 4-11 9-22 19-30 4-4 9-8 13-12-1-1-2-3-2-4-4-6-8-11-11-17-6-10-10-20-10-32-1-1-1-3-1-4-3-9-1-16 5-22 14-12 30-19 49-19 7 0 14 1 21 2 5 1 10 3 14 7 2 2 5 2 8 4 3 2 7 4 10 6 4 3 5 7 4 11-1 5 0 10 1 16 0 3 0 7 0 11 0 1 0 2-1 2-5 11-11 21-21 27-8 5-16 10-23 15-1 0-2 1-2 1 3 6 28 31 37 36 0-1 1-2 0-3 0-3-1-6-2-9-2-5-2-11-1-16 0-6 8-11 12-10 2 1 4 2 5 3 4 6 6 13 7 20 1 6 2 12 3 19 0 5 0 10-1 15 0 2 0 4 2 5 6 8 13 15 19 22 3 4 6 7 5 13-1 0 0 1 0 2 1 5-3 9-8 8-1 0-3 0-4 1-3 2-6 1-9-1-2-2-5-4-7-6-5-2-8-5-9-10-1-2-2-3-4-5z m-55-5c9 1 16-1 21-7 2-3 6-6 10-9 2-2 2-3 1-5-2-2-2-5-3-7-1-1-3-3-4-5-11-9-22-18-32-29-5-6-5-6-11-1-6 5-12 10-16 16-3 4-5 9-4 14 4 13 10 24 24 29 6 1 11 3 14 4z m-27-131c-1 5 0 9 3 12 5 7 11 13 16 19 2 2 3 2 5 0 7-4 14-9 20-14 8-6 16-12 18-22 0-4 1-8 0-11 0-2-3-3-4-4 0 0-1 0-1 0-11-11-24-13-39-7-9 4-19 17-18 27z"/>
    </symbol>

    <symbol id="icon-gp-ampersand-13" viewBox="0 0 512 512">
      <path d="m230 262c0-1-1-1-1-1-12-5-17-14-16-27 1-13 7-21 18-26 9-4 19-6 28-1 8 4 13 10 13 19 1 8 0 15-4 22-5 8-11 16-19 23-7 6-7 15-7 24 0 0 1 1 1 1 4 5 9 5 14 5 4-1 7-4 7-8 1-4 0-8 1-13 1-3 1-7 3-11 2-5 7-7 11-5 5 2 8 6 6 11 0 2 0 3 0 5-1 6-1 7 6 8 4 1 7 4 7 8 0 4-3 8-7 8-7 0-11 4-16 8-14 14-41 10-50-7-3-7-3-13-2-20 0-4 1-8 2-12 1-4 3-7 5-11z m0-25c0 6 9 13 15 11 0 0 1-1 1-1 3-4 5-8 7-13 3-5 0-10-4-11-10-2-19 5-19 14z m168-155c0-16 0-32 0-48 0-5-1-10-2-14-1-8-10-10-16-5-6 6-12 13-18 20-6 6-12 14-19 19-11 10-24 19-31 32 0 0-1 0-1 1-10-4-17-11-24-20-10-14-23-24-36-35-3-3-7-3-12-1-4 2-6 5-6 9 0 19 0 37 1 55 0 15 1 30 2 45 0 3 0 4-4 4-16 1-32 2-49 2-10 0-16 6-16 17 0 18 0 36 0 55-1 28-2 57-3 85 0 4 1 8 1 13-7-1-14-1-20-1-7-1-13 0-19 0-9 1-13 6-12 14 0 9 1 19 1 28 0 17 0 35 0 52 1 26 2 52 2 77 1 6 3 11 9 13 5 2 9 0 13-4 7-10 15-19 22-29 9-11 17-21 25-32 1 1 2 2 3 3 12 17 25 34 38 52 4 4 9 5 14 4 5-1 7-5 8-10 3-24 6-48 10-72 2-14 5-28 7-43 5 0 11 1 16 0 16-1 32-3 48-4 4-1 7-2 10-5 3-5 4-9 4-15-1-23-4-46-3-69 2-36 1-71 1-107 0-4 2-4 5-4 13 0 26 0 40-1 8 0 11-3 11-12 0-23 0-46 0-69z m-167 376c-1-1-3-2-4-4-10-14-19-28-29-42-3-3-6-6-9-8-6-2-12 0-14 6-3 10-10 17-17 25-5 6-9 13-14 19-1 2-2 3-3 5-1 0-1 0-2-1 0-5-1-11-1-17 0-26-1-52-1-77 0-8 0-15-1-23 0-4 1-5 5-5 7 1 15 1 22 2 1 0 3 2 3 4 0 6 1 12 1 18 0 7 5 11 12 11 12 0 25 0 37-1l23-1c3 0 6 0 9 0-6 30-11 59-17 89z m90-250c0 38-1 70-1 104-1 8 1 16 1 24 1 3 0 6-4 6-22 2-44 5-66 5-18 0-37 1-55 2-8 0-8 0-8-8-1-26-2-53-2-79l3-91c0-2 1-4 3-4 14 0 29-1 43-1 1 0 3 1 3 1 4 5 9 5 14 4 22-6 45-5 67-5 3 0 4 0 4 3-1 13-2 32-2 39 0 0 0 0 0 0z m61-159c0 23 0 45-1 68 0 8 0 17 0 26 0 2-1 3-3 3-27 1-54 2-81 2-12 1-25 2-37 3-1 0-3 0-4 0-1-30-3-61-4-91 0 0 1 0 1-1 4 4 8 7 11 10 4 5 8 9 12 14 6 8 14 15 23 19 3 2 5 4 7 6 6 5 15 4 18-3 6-14 16-25 29-33 10-7 18-17 26-27 1-1 2-2 3-4 0 4 0 6 0 8z"/>
    </symbol>

    <symbol id="icon-gp-ampersand-14" viewBox="0 0 512 512">
      <path d="m364 342c-4-15-12-28-20-40-5-5-5-8 0-13 2-3 5-6 8-9 1-1 2-3 2-4 1-4 1-8 2-11 0-7 1-13 0-19-1-8-7-12-14-12-7 0-14 0-21 0-4 0-7 3-9 7-2 4-5 8-7 12-2 4-5 8-6 12-4 12-12 22-21 31-4 4-11 8-17 11-13 6-27 7-42 7-6 0-8-2-8-9 0-5 0-10 0-15 0-6 3-10 6-14 9-9 20-15 31-21 17-9 35-18 51-29 17-10 26-27 26-47 0-5 1-11-1-15-2-5-7-9-10-14-10-11-25-14-38-17-15-3-30-1-45 2-15 2-29 5-42 13-8 5-14 11-18 19-5 11-6 23-5 35 0 7 2 14 9 19 5 4 8 9 13 15-4 3-8 7-12 9-17 10-23 25-27 43-2 9-3 19-3 29-1 12 3 23 10 32 5 6 11 11 19 11 12 1 24 2 36 3 7 1 13 1 20 1 17 1 35 2 52-5 10-4 20-8 22-21 0 0 1 0 2-2 5 10 11 19 15 28 4 7 7 9 15 8 7-1 15-2 22-4 4-1 7-4 7-8 0-6 0-13-2-18z m-144-87c-7 4-7 4-13-1-1-1-3-3-5-4-2-1-4-2-4-3 1-4 3-8 5-13 0-1 1-2 2-2 4-4 9-7 14-11 3 8 5 14 6 21 1 5 0 9-5 13z m14-8c0-4 0-8 0-11-1-3-2-7-3-10-1-3-1-5 3-6 8-4 8-4 10 5 1 5 3 10 4 15-4 2-8 4-14 7z m22-10c-3-9-5-16-7-23 0 0 0-1 0-1 8-5 9-5 14 3 2 4 5 9 7 13-4 3-9 5-14 8z m25-13c-4-7-9-13-13-19 5-5 6-6 12-3 6 3 12 6 19 9-7 5-12 9-18 13z m32-43c-1 6-3 12-4 19-10-4-18-7-26-10-1 0-2-1-2-2 0-1 1-2 2-2 8-3 16-6 25-9 3-1 5 0 5 4z m-42-11c2-7 4-13 7-20 9 1 18 4 25 10 5 4 4 6-2 8-7 3-14 5-21 7-2 1-4 1-5 1-4 0-6-2-4-6z m-2-22c-2 9-4 16-7 24-1 1-5 1-7 1-1 0-3-1-3-3-2-7-3-15-5-23 8 0 14 1 22 1z m-5 38c3 0 4 2 2 5-1 0-1 0-2 1-10 7-24 9-36 14-1-6-3-11-4-15 0-1 2-3 3-4 12-3 25-2 37-1z m-51-36c8-1 17-3 25-4 0 10 0 19 0 28 0 0-4 0-5-1-7-7-14-14-21-21 1-1 1-1 1-2z m-9 4c1 0 2 1 3 2 4 7 8 14 13 22-12 0-23-5-34-11 5-7 11-10 18-13z m-26 42c1-6 2-12 2-18 11 4 20 7 30 11 0 1-1 3-2 4-10 1-19 2-30 3z m3 12c10-2 19-3 28-5 3-1 4 1 5 3 1 3 2 5-1 7-5 3-10 7-15 11-1 0-3 0-4-1-4-4-8-9-13-15z m8 45c4 3 8 6 12 10 1 1 1 3 2 5-2 0-4 1-5 0-6-2-11-5-17-8 3-3 5-5 8-7z m-22 27c5-13 6-14 17-7 4 2 7 4 11 6 1 1 2 3 3 6-11-1-21-2-32-3 0-1 0-2 1-2z m-3 12c10 1 19 2 29 4 1 0 2 2 3 3-1 1-2 3-3 3-9 2-17 3-25 5-3 0-5-1-4-4 0-3 0-7 0-11z m8 41c-1 1-4 0-4-1-2-5-4-10-5-15 12-1 22-2 33-3 2 4 0 6-4 8-6 3-13 7-20 11z m27 11c0 1-2 1-4 1-4 0-9-2-13-3 0 0 0 0 0-1 6-4 12-8 18-11 2-1 5 0 9 0-4 5-7 10-10 14z m31-3c0 1-1 3-2 3-6 0-11 0-16 0 3-12 8-15 20-13-1 3-1 7-2 10z m14 3c0 0-1 0-1 0 0-1-1-3-1-4 2-3-3-9 2-11 4-1 8-1 12-1 1 5 1 9 2 16-5 0-9 0-14 0z m91-96c1 0 2 3 2 5 0 2-1 4-4 3-3-2-7-3-10-4 3-4 8-5 12-4z m-17 14c11 5 12 10 5 20-4-2-7-4-11-6 2-5 4-10 6-14z m-30 78c-3 4-13 7-17 5-1-1-2-2-2-3 0-2 0-4 0-6-2-12-2-12 10-17 3 6 6 12 9 17 0 1 0 3 0 4z m15-27c-3 3-6 7-9 11-2-3-5-6-7-10 0-1 0-2 0-3 3-5 7-10 11-16 2 6 4 11 6 16 0 0-1 1-1 2z m12 5c-2-5-3-10-5-14-1-3-3-6-6-9-4-5-4-5 1-10 22 9 22 17 10 33z m9 13c-1-3-2-5-1-6 2-5 6-10 9-15 5 5 5 5 1 10-3 3-5 6-9 11z m19 14c-3 1-6 2-9 4-5-8-5-9 0-16 2-2 4-4 7-6 0 0 1 0 2 0 1 5 2 11 2 16 0 0-1 1-2 2z"/>
    </symbol>

    <symbol id="icon-gp-ampersand-15" viewBox="0 0 512 512">
      <path d="m362 354c2-11-1-21-5-31-4-10-9-19-17-27-1-1-1-3-1-4 1 0 3 0 4 0 2-1 5-1 6-3 1-1-1-4-2-6 0-1-2-2-3-3 1-3 2-6 4-9 5-7 5-14 5-22 0-3-2-6-6-7-2 0-5-1-7-1-4 0-9 0-13-1 0-1 0-1 0-1 1-4 0-8-4-8-3-1-6 1-8 3-2 2-1 6 2 8 0 1 1 3 0 4-4 12-8 24-17 35-5 6-10 13-14 20-5-6-9-8-13-4-4 3-4 7 2 13-2 1-3 2-4 2-14 1-29 3-44 4-3 0-3-1-3-4 0-8 0-15 0-23 1-4 2-8 4-11 3-3 5-6 10-4 4 1 6-2 7-6 0-5 6-8 11-6 4 2 7 1 8-3 1-1 1-3 1-4 4 2 8 4 10 0 1-6 5-7 9-9 16-8 31-16 40-32 7 4 11 4 13-1 2-5-1-7-8-10 0-6-1-12 0-18 2-7 0-11-6-14-2-1-4-4-5-7-1-1 1-3 1-4 1-4 0-6-3-8-3-2-6-1-8 2-1 1-2 2-5 1-11-4-24-6-36-6-4 0-7 0-11 0 0-4 0-7-4-7-5-1-5 4-6 7-17 2-34 6-47 16-4-2-6-4-9-4-1-1-4 2-4 3 1 3 2 6 4 10-1 2-3 7-4 10-4 0-7-1-9 0-1 0-2 4-2 5 2 2 5 3 8 6 0 2 2 7-5 8-1 0-2 3-2 4 0 1 2 4 3 4 3 1 3 3 4 5 1 3 2 7 4 9 4 5 9 10 13 14 1 1 1 2 2 3-3 3-6 6-8 8-3-2-6-4-9-5-1 0-4 3-4 4 0 3 3 6 4 9 1 0 0 1-1 2-4 6-8 12-12 18-3 5-7 10-4 18 2 7 0 15 0 23 0 2 0 4-3 5-3 1-4 4-3 7 1 4 3 5 6 4 3-1 4 1 5 3 4 4 7 9 11 11 9 5 19 7 30 7 1 0 3 1 4 2 3 2 5 2 7 0 2-4 6-3 9-3 0 4 0 8 5 8 6 1 6-4 6-8 4 0 4 0 5 3 1 2 3 4 4 4 2 0 4-2 5-3 1-1 1-2 1-3 4-1 8-1 9 5 0 1 3 3 5 3 2 0 4-2 5-3 1-1 1-3 2-5 1 1 2 2 3 3 4 3 8 3 10-2 1-2 2-3 3-4 3-3 7-5 10-9 3-4 5-8 7-13 2 3 4 6 7 9-5 2-8 3-7 8 2 5 6 3 10 1 1 2 1 3 2 5 2 2 3 5 6 6 7 4 15 4 23 1 3-1 6-4 7-7z m-22-5c-1 0-3-1-3-2-4-12-11-22-19-30-5-6-11-5-14 2-1 3-2 7-4 10-4 11-9 15-20 15-19-1-39-1-58-1-7 0-15 1-23-1-12-3-17-8-19-23-1-10-1-19 1-29 1-6 5-13 9-18 7-8 15-15 22-22 5-4 6-8 2-12-5-6-10-12-16-18-3-3-4-6-4-10 0-9 0-18 4-27 3-7 9-11 16-15 11-5 23-8 35-8 15 0 31 0 46 5 4 1 9 3 12 6 3 1 4 5 5 8 2 3 3 6 4 8 4 5 2 9 1 13-3 17-17 26-31 33-13 7-26 12-39 19-9 4-18 9-26 15-6 4-9 11-10 19-1 9-1 18-1 27 0 9 3 17 17 17 15 0 30-1 45-4 11-3 19-9 25-19 7-9 14-19 20-29 4-6 6-13 9-20 1-4 3-5 8-5 8 0 9 2 5 9-5 9-9 19-13 28-2 4-1 8 2 11 7 8 13 16 17 25 2 8 4 15 6 23-5 0-8 1-11 0z m19-138c-3 0-6-3-6-7 0-4 3-7 7-7 4 1 7 4 7 8-1 3-4 6-8 6z m-101-88c0 4-4 7-7 7-4 0-8-4-8-7 1-4 4-6 8-7 3 0 7 3 7 7z m104 162c-4 0-7-3-6-7 0-3 3-6 7-6 3 0 6 3 6 7 0 4-4 6-7 6z m-30 85c4 0 7 4 6 7 0 4-3 6-6 6-3 0-6-3-6-6 0-4 3-7 6-7z m-34-113c3 0 6 3 6 7 0 3-3 6-6 6-4 0-7-3-7-6 0-4 3-7 7-7z m-24 140c-4 0-7-3-6-6 0-4 3-7 6-7 4 0 7 4 6 7 0 4-3 6-6 6z m95-72c-4 0-7-2-7-6 0-3 3-6 6-6 4 0 7 3 7 6 0 4-3 6-6 6z m31-12c0 4-3 7-6 7-4 0-7-3-7-7 0-3 3-6 6-6 4 0 7 3 7 6z m-101 59c0 3-2 6-6 6-4 0-7-2-7-6 0-4 3-7 7-7 3 1 6 3 6 7z m-26-263c0 4-3 7-6 7-4 0-7-3-7-6 0-4 3-7 6-7 4 0 7 3 7 6z m-66 265c-4 0-6-2-6-6 0-3 3-6 6-6 3 0 6 3 6 6 0 4-3 6-6 6z m-29 29c-3 0-6-2-6-6-1-3 2-6 6-6 3 0 6 2 6 6 0 3-3 6-6 6z m8-38c0 3-3 7-6 6-4 0-6-2-6-6-1-3 2-6 6-6 3 0 6 3 6 6z m208-88c0 4-3 8-6 8-4-1-6-3-6-7 0-3 3-7 6-6 4 0 6 2 6 5z m-111-1c0 4-2 6-6 6-3 0-6-2-6-6 0-3 3-7 6-6 4 0 6 2 6 6z m96 95c0 3-2 5-6 5-3 0-6-3-6-6 1-3 3-6 7-5 3 0 5 2 5 6z m-7-127c4 0 6 2 6 6 0 3-2 5-6 6-3 0-6-3-6-6 0-4 3-6 6-6z m8-19c-4 0-6-3-6-6 0-3 3-6 6-6 4 1 6 3 6 6 0 4-3 6-6 6z m-172 208c0-3 2-6 6-6 3 1 5 2 5 6 1 3-2 5-5 6-3 0-6-3-6-6z m56-55c-3 0-5-2-5-5 0-4 3-7 6-6 3 0 5 2 6 5 0 3-3 6-7 6z m28-256c1-3 3-5 6-5 3 1 6 4 6 7-1 3-3 5-7 5-3 0-5-3-5-7z m-35 178c3 1 5 3 5 6 0 3-3 6-6 6-3 0-5-3-5-6 0-3 2-6 6-6z m-1 88c-1 4-2 6-6 6-3 0-6-3-6-6 0-3 3-6 6-6 4 0 5 3 6 6z m86-262c-1 4-2 6-6 5-3 0-5-2-5-6 0-3 3-5 6-5 3 1 5 3 5 6z m-112 16c0 3-2 6-5 6-3 0-6-2-6-6 0-3 2-5 6-6 3 0 5 3 5 6z m-12 247c0 4-2 6-5 6-3 0-5-2-5-5-1-4 1-6 5-6 3 0 5 2 5 5z m154-47c-3 0-5-2-5-6 0-3 2-5 6-5 3 0 5 3 5 6 0 3-3 5-6 5z m-76-278c-2 2-4 4-6 4-3 1-5-1-5-5 0-3 3-6 5-5 3 0 5 3 7 4 0 1 0 2-1 2z m53 124c-2 2-4 4-6 5-3 0-6-3-6-6 1-3 3-6 6-5 2 0 4 3 6 4 0 1 0 1 0 2z m-76 247c0 5-2 7-5 7-4 0-6-2-6-5 0-3 2-6 5-5 3 0 5 2 6 3z m-116-159c-5-1-7-2-7-5 0-4 2-6 5-6 3 0 6 2 5 5 0 3-2 4-3 6z m149 156c-2 1-4 4-7 4-3 1-5-2-5-5 0-3 2-6 5-5 3 0 5 2 7 4 0 1 0 1 0 2z m-145-197c-3-1-6-3-5-6 1-2 3-4 5-5 3-1 5 2 5 5 0 3-1 5-5 6z m179-79c-2 1-4 3-7 4-2 0-4-2-4-5 0-3 2-6 5-5 2 0 4 2 6 4 0 1 0 1 0 2z m31-2c-2 2-4 4-6 4-3 1-5-2-5-5 0-3 2-5 5-5 2 1 4 3 6 4 0 1 0 2 0 2z m-128 138c-2 1-4 4-6 4-1-1-4-3-4-5-1-3 2-6 5-5 2 0 3 2 5 4 0 1 0 1 0 2z m97-65c2-2 4-4 6-4 1 0 4 3 4 5 1 3-1 5-4 5-2 0-4-3-6-4 0-1 0-1 0-2z m-22 183c-2-3-5-5-5-7 1-2 3-4 5-5 2 1 5 3 5 5 0 2-2 4-5 7z m-57-132c-1 2-3 4-5 4-3 0-6-2-5-5 0-2 3-4 5-4 2-1 3 2 5 3 0 1 0 2 0 2z m9 139c-1-2-3-4-3-6-1-3 1-5 4-4 2 0 5 3 5 4 0 2-2 4-4 6 0 0-1 0-2 0z m-27-8c-2 2-4 4-6 4-1 0-4-3-4-4 0-2 2-5 4-5 2 0 4 2 6 3 0 1 0 2 0 2z m37-269c-2 1-4 3-6 3-1 0-3-3-4-4 1-2 3-4 5-4 1-1 3 2 5 3 0 1 0 1 0 2z m-87 4c-1 1-3 3-5 3-2 0-4-3-4-4 0-2 2-4 4-5 2 0 4 3 5 4 0 0 0 1 0 2z m-45 155c-1 2-3 4-5 4-2 0-4-3-4-4-1-2 2-5 4-5 1 0 3 2 5 3 0 1 0 2 0 2z m214 104c-1-1-4-3-4-5 1-2 3-4 5-4 1-1 4 2 4 4 0 1-2 3-3 5-1 0-1 0-2 0z m-223-140c-2-3-4-5-4-7 0-2 3-4 4-4 3-1 5 1 5 4-1 2-3 4-5 7z m27-121c-3 2-4 4-6 4-3 1-5-2-5-5 1-1 3-3 5-3 2-1 3 2 6 4z m-44 162c-1-2-4-4-3-5 0-2 2-3 4-5 1 1 4 3 4 4 0 2-2 4-3 6-1 0-2 0-2 0z m33-118c-1 1-3 3-5 3-1 0-4-2-4-3 0-2 2-4 4-5 1 0 3 2 5 3 0 1 0 1 0 2z m19-87c1 2 3 4 3 5 0 2-3 4-4 4-2 0-4-3-4-4 0-2 2-3 3-5 1 0 1 0 2 0z m-57 153c1 2 4 4 3 5 0 2-2 3-4 5-1-2-4-3-4-5 0-1 2-3 5-5z m99-127c-3 2-4 4-6 3-1 0-2-2-4-3 2-2 3-4 5-4 1-1 3 2 5 4z m-67 91c2 2 4 4 4 5 0 2-2 4-4 4-1 1-4-2-4-3 0-2 2-3 4-6z m85-103c-3 2-5 4-6 4-2 0-3-3-4-4 1-1 3-4 4-4 1 0 3 2 6 4z m-86 309c-2-3-4-5-4-6 1-2 3-3 4-5 2 2 4 3 4 5 0 1-2 3-4 6z m56-326c2 3 4 5 4 6 0 2-3 4-4 4-1 0-4-2-4-4 0-1 2-3 4-6z m127 11c-3 2-4 4-6 4-1 0-2-3-4-4 2-1 3-4 5-4 1 0 3 2 5 4z m-107 266c3-2 5-4 6-4 1 1 3 3 4 4-1 1-2 3-4 4-1 0-3-2-6-4z m-61-20c-3 2-4 4-6 3-1 0-2-2-3-3 1-1 2-3 4-4 1 0 2 2 5 4z m11-92c-3 2-4 3-6 3-1 0-2-2-3-3 1-1 2-3 4-4 1 0 2 2 5 4z m63 49c-2 1-4 3-5 3-1 0-2-2-4-4 2-1 3-3 4-3 1 0 3 2 5 4z m-100 46c-2 1-3 3-4 3-2 0-3-2-3-3-1-1 1-3 2-3 1 0 3 1 5 3z m103-263c1 1 3 3 3 3 0 2-2 3-3 4-1 0-3-2-3-3 0-1 1-2 3-4z m46 105c-2-8-6-10-15-10-2 0-5 0-7 0 0 0 0-2-1-2-8 1-17 1-25 2-13 3-17 9-13 22 2 5 3 10 4 15 2 5 6 7 11 5 4-1 8-3 11-5 11-5 21-10 31-15 5-3 6-6 4-12z m-48 19c-4-4-4-10-6-15 3 0 5 0 7 0 1 3 2 5 2 6-1 3-2 6-3 9z m24-13c-1-1-4-1-5-1-2 1-3 3-3 5 0 2 0 4-2 5-1 0-3-2-4-2 0-1 1-1 2-1 0-3 2-7 1-10-2-4-6-3-10-2 0-1 0-1 0-2 7-1 14-2 22-2 0 6 1 9 8 9-4 3-6 5-9 1z"/>
    </symbol>

    <symbol id="icon-gp-ampersand-16" viewBox="0 0 512 512">
      <path d="m141 186c-2-1-4-1-5-1-13-4-25-7-37-10-8-2-11-5-10-10 1-6 6-8 13-6 9 2 17 3 25 6 7 1 13 5 18 11 1 1 1 4 0 6 0 2-3 3-4 4z m-49 81c-5 1-9-2-9-7-1-4 2-8 6-9 13-1 25-1 38-2 2 0 5 0 7 2 2 1 4 3 4 5 0 3-2 5-4 7-1 1-4 1-6 1-12 1-24 2-36 3z m98-155c-1 4-3 7-7 6-2 0-6-1-7-3-9-8-17-17-25-26-2-2-3-6-2-9 1-6 6-7 11-3 5 5 11 11 16 16 4 4 7 8 10 12 2 2 3 5 4 7z m197 157c5 1 9 1 12 3 9 3 17 7 26 11 5 3 6 8 3 13-3 4-7 4-13 1-8-5-17-10-26-14-1-1-3-2-4-3-2-2-4-5-3-7 0-2 4-3 5-4z m-120-187c0 6 0 12-1 18 0 2-1 4-2 6-1 2-4 3-6 3-2 0-4-3-4-4-1-13-1-26-1-38 0-4 2-7 7-7 4 0 6 3 7 7 0 5 0 10 0 15 0 0 0 0 0 0z m-149 282c-2-1-5-3-6-6-2-3-1-7 2-9 9-5 17-9 26-13 4-2 8-2 12 1 3 3 3 8-1 10-9 5-18 11-28 16-1 0-2 1-5 1z m165 37c1-4 2-7 3-9 2-2 5-4 7-3 2 0 5 3 6 5 2 7 5 13 7 19 0 1 1 2 1 2 2 6 1 11-3 13-5 2-10 0-12-5-3-8-6-15-9-22z m112-203c-8-1-17-2-25-3-4-1-7-4-7-9 0-4 3-6 7-6 9 0 18 1 28 1 4 1 7 5 7 9-1 5-5 8-10 8z m-171 219c0 4 0 9-1 13-2 5-6 8-10 7-4-1-7-5-6-10 1-7 1-14 2-21 1-3 1-6 2-8 2-2 4-4 6-4 2 0 5 3 5 5 1 6 1 11 2 18z m129-316c-2 2-3 5-5 7-4 4-9 9-14 14-2 2-6 4-9 1-3-3-2-6 0-9 5-6 9-12 14-18 2-1 6-2 8-1 2 1 4 3 6 6z m11 247c-5-8-10-16-16-23-7-9-14-18-24-24-4-2-4-4-3-7 3-9 5-18 8-27 1-6-3-13-9-14-5-2-12 2-14 8-2 5-3 9-4 14-5 17-12 33-21 49-1 3-4 5-7 6-14 6-28 7-43 7-11 0-20-5-29-13-4-3-5-8-4-13 1-7 4-14 4-21 1-16 10-25 25-31 0 0 0 0 1 0 28-13 54-28 78-47 9-6 15-15 15-27 0-18-12-33-29-37-18-5-36-3-54-2-17 1-29 11-40 21-13 12-8 46 3 55 6 4 11 9 16 15-6 3-11 6-15 8-10 7-18 14-20 26-3 13-6 26-8 38-1 8-1 16 3 22 10 15 23 24 40 28 18 4 37 2 55-3 16-4 28-12 34-27 2-4 4-8 6-12 1-1 2-1 2-1 3 3 6 7 9 11 8 11 15 22 23 34 4 5 10 7 15 3 6-4 7-10 3-16z m-149-144c-6-9-3-21 6-28 8-5 16-8 25-8 5 0 9 0 14 0 0 0 0 0 0-1 7 1 15 1 22 2 3 1 5 1 7 3 10 5 11 16 2 22-16 11-32 23-50 31-3 1-5 1-7-1-6-6-13-12-19-20z"/>
    </symbol>

    <symbol id="icon-gp-ampersand-17" viewBox="0 0 512 512">
      <path d="m349 345c-3-6-6-11-9-17-1-2-2-4-2-6-1-6-3-11-9-13-1 0-2-1-3-2-1-3-3-7-5-10 8-3 9-9 9-15 3-4 7-6 9-9 2-3 3-7 4-10 2-8-2-16-9-17-7-2-13 4-14 12-1 4-2 9-3 13 0 1-1 2-2 3-3 2-5 5-8 8-1 1-2 3-4 3-10 2-14 9-12 19 2 6-4 10-4 15 0 1-1 1-1 1-6 2-9 7-8 13 0 4-3 6-7 5-3-1-6 0-10 0-1 0-2 1-3 0-5-3-11-2-16 2-5-6-11-7-18-6-5 1-9 0-12-5-4-8-9-9-18-7-2 0-5-1-5-2-2-6-5-12-4-18 0-6 0-13 6-17 0 0 0-1 0-1 3-7 10-10 15-14 3-4 8-6 9-12 1-4 6-6 9-3 4 4 9 5 14 4 3-1 7-2 10-4 3-2 6-3 10-2 8 1 14 0 18-8 2-3 5-6 10-6 10 0 15-8 13-18 0-2-1-4-2-7 2 0 2 0 3 0 7-1 11-4 12-10 1-5-1-10-7-14-2-1-2-3-2-5 1-7 0-12-5-17-1-1-2-3-2-5 0-5-2-9-7-11-5-2-10-1-13 2-2 1-3 3-4 4-5-14-13-16-24-7-4-1-8-3-12-4-3-1-8-1-12-1-9-1-17 4-24 8-3 2-5 3-8 3-12-1-19 8-16 19 0 1 0 3 0 4-7 10-7 13 0 23-6 12-2 25 15 22-2 7 0 12 5 16-2 3-5 6-6 10-1 5-6 4-8 7-1 1-1 2-2 3-2 1-3 3-5 4-8 2-11 9-9 17 1 3 1 4-1 7-3 3-3 8-1 12 0 2 1 3 0 5-3 6-1 12 3 17 1 1 1 3 2 4 0 11 3 14 14 14 4 14 8 16 22 14 4 0 9-1 13 4 1 2 5 3 8 3 4-1 9-3 13-5 5 6 11 7 18 3 1-1 3 0 4 1 7 4 13 3 18-3 1-1 4-2 5-3 6 0 11-5 11-11 1-7 3-12 10-13 2-1 3-3 5-5 1-1 2-2 3-3 0 1 1 1 1 1 0 2 1 5 1 7-3 10 1 18 11 21 2 1 3 2 5 3 4 3 9 4 13 2 4-2 7-7 5-12z m-155-143c6-6 6-13-1-22 6-1 10-2 15-3 11-2 22-4 33-6 2 0 4-2 7-4 7 6 15 6 21-1 2 3 5 6 6 9 1 1 1 2 2 4 1 5 2 10 4 15 1 4 1 9-4 11-5 2-7 6-8 12-1 5-5 7-10 8-3 1-7 2-9 4-3 3-5 3-8 2-6-2-11-3-16-1-1 0-2 0-3 0 0-1-1-2-1-2-5-1-9-5-13-8-3-2-8-2-12-2 0-2 1-5 0-7 0-3-2-6-3-9z"/>
    </symbol>

    <symbol id="icon-gp-ampersand-18" viewBox="0 0 512 512">
      <path d="m333 328c-1 0-3-2-3-3 0-7-4-12-11-14 6-9 7-13 6-19 0-2 0-4 1-5 5-6 7-12 5-19-1-1 1-3 1-4 5-5 7-10 5-16-3-8-13-12-22-9-10 4-13 13-10 22 1 1 1 3 1 4-4 5-7 11-4 19-2-2-3-3-5-4-3-1-4-3-4-7-1-3-2-6-4-8-3-3-7-5-10-8-1 0-2-1-2-2-2-4-2-9-4-12-5-5-8-12-13-17-5-5-9-9-11-16-1-3-5-6-9-9 3-9-3-16-12-20 3-2 6-4 8-5 13 9 20 10 31 1 10 6 11 6 21 0 1 0 3 0 4 1 7 3 17 2 23-3 4-4 6-10 3-16-2-5-8-9-14-8-4 0-8 1-11 3-2 0-4 1-6-1-6-4-14-3-19 3-1 1-2 2-3 3-1 0-1-1-1-1-8-8-14-9-24-4-1 0-2 0-3-1-7-4-12-4-19 1-3 2-6 3-9-1-6-5-14-4-19 0-5 5-6 13-2 19 1 2 1 4 1 6-3 11 4 20 16 19 0 0 1 0 1 0 1 4 2 8 4 11 2 3 6 5 9 7 0 3-1 7 0 10 1 4 0 6-2 9-12-5-22 0-26 12 0 2-2 3-3 4-7 5-10 11-8 19 1 3 0 4-2 6-11 8-10 22 0 28 0 0 0 1 0 1-5 12-3 18 10 23 0 1 0 2 0 3-1 12 6 18 18 16 1 0 3 1 4 2 6 7 14 10 22 8 2-1 3 0 4 0 7 6 13 6 20 2 1-1 3-1 4-1 9 6 16 2 24-4 1-1 3-1 4-1 6 1 12-1 15-7 1-1 1-2 3-4 2 2 6 3 7 5 2 7 7 11 15 11 7-1 12-6 14-14 1-6-3-12-9-15z m-55-4c-6-2-11 0-16 3-1 1-3 2-3 1-7-4-14-3-20 2-4-6-10-9-17-8-1 0-1 0-2 0-2-4-6-7-6-11 0-7-2-13-8-17-1-1-1-3-2-5 0-1 1-2 1-3-4-9 4-15 5-22 0-1 1-2 1-2 4-3 7-6 11-9 5 3 11 3 17 0 2-2 7 2 8 5 0 7 3 13 10 16 1 0 2 1 2 3 1 7 6 12 13 14 3 1 3 2 3 4 0 6 2 11 7 14 1 1 2 2 2 4 0 1 0 3 0 4 1 4-2 8-6 7z"/>
    </symbol>

    <symbol id="icon-gp-ampersand-19" viewBox="0 0 512 512">
      <path d="m348 341c-1-2-2-3-4-4-6-6-13-12-16-20-1-2-1-4-1-6 3-6 6-12 8-18 5-11 9-22 13-34 4-8 2-14-6-18-2-1-5-1-7-2-8-1-16-3-25-5-10-2-14 0-17 10-2 7-5 15-7 23-1-1-2-2-2-2-4-9-8-17-13-25-2-4-4-8-7-12-7-9-15-18-23-27-2-3-4-5-7-8 1 0 1 0 2 0 13 1 26-2 39 1 8 2 18 1 27 1 5 1 9-3 9-9 0-9 0-18-1-28-1-9-4-12-13-13-8-1-17-1-25-1-20 0-40 0-60 2-10 0-20 4-30 6-4 1-6 4-8 8-1 4-3 8-4 12-1 3-2 7-1 11 0 4 2 9 4 13 1 3 3 5 5 7 6 8 13 15 20 22 1 1 2 2 3 4-1 0-2 1-3 1-10 4-18 10-24 19-4 7-7 15-10 22-3 9-5 18-2 27 2 6 4 13 1 20-1 2 0 5 1 7 1 4 3 8 5 11 3 6 7 12 14 16 6 3 12 5 18 7 11 4 23 4 34 5 16 0 31 0 45-6 5-2 8-1 11 2 2 4 6 7 11 6 14-3 27-5 41-8 9-2 11-11 5-17z m-66-180c11-1 14 4 12 15 0 1-1 1-2 2-1 0-2 0-3 0-6 0-6 0-6-6 0-2 0-4-1-5 0-2 0-4-1-5 1 0 1-1 1-1z m-29-1c0 7 0 13 0 20-7 1-12 1-18 1 0-6-1-13-2-20 7 0 13 0 20-1z m12 104c-5 3-10 6-15 8-1-2-2-4-3-6 4-3 9-6 14-8 2 2 3 4 4 6z m-27-36c1 0 3 0 4 1 3 2 4 4 7 7-1 1-2 1-2 1-9 4-15 10-20 17-4 5-5 5-10 1-3-3-7-6-9-8 5-4 10-8 15-12 2-2 4-2 6-3 3-1 6-3 9-4z m-47-59c6-1 11-2 17-3 1 4 2 8 3 13-8-2-15-4-23-6 0-2 0-3 3-4z m7 32c-1 0-1-1-1-1 3 0 6 1 9 1 3 0 6 1 8 0 6 0 9 2 11 7-4 2-8 4-11 5-1 1-2 1-3 0-4-4-9-8-13-12z m-9 58c5 5 10 9 15 12-1 4-3 5-6 4-5-1-10-1-16-2 1-5 4-9 7-14z m-8 55c-3-6 0-12-2-18 7 1 12 1 18 2 1 0 2 1 2 2 1 2 1 4 1 6-6 3-12 5-19 8z m38 30c-8-2-17-5-26-7 7-4 12-7 17-10 0 0 1 0 2 0 4 1 8 3 11 5-1 3-2 7-4 12z m40 1c-5 0-10 0-15 0 0-3 1-6 2-9 0-1 2-2 3-2 5 0 11 0 17 0 3 8 2 10-7 11z m-23-26c-4-2-9-2-14-3-2-1-4-2-4-3-4-8-4-15-4-24 1-10 6-16 14-20 2-1 4-1 5 1 6 14 18 25 28 37 2 3 4 6 6 10-10 3-20 4-31 2z m44-30c-3 2-5 3-7 5-3 3-5 2-6-1 4-3 8-5 13-8 2 1 2 2 0 4z m23-26c7 2 14 3 22 5-1 6-3 11-4 17-7-2-14-4-20-6-1 0-2-1-2-2 0-5 1-10 4-14z m-7 39c1-1 2-1 3-1 5 1 9 3 15 5-2 1-3 3-5 3-7 1-15 2-22 3 3-4 6-7 9-10z m8 45c-1 0-3-1-4-2-3-3-6-7-11-7-1 0-2-2-2-3 1 0 2-1 3-1 5-1 11-1 16-2 7-2 11 0 14 5 1 2 3 4 6 6-8 2-15 3-22 4z"/>
    </symbol>

    <symbol id="icon-gp-ampersand-20" viewBox="0 0 512 512">
      <path d="m294 355c-11 8-24 9-36 10-11 1-22-1-32-5-9-4-19-7-27-10-8-3-15-7-22-11-3-2-4-6-5-10 0-1 1-3 0-4-7-14-3-29-2-43 1-7 2-14 3-21 1-10 7-16 13-23 5-6 11-10 19-11-1-8-5-13-9-18-4-4-7-7-11-11 0 0-1-1-2-2-4-8-5-17-4-25 1-12 9-18 21-20 6-1 11-2 17-3 11-2 22-2 34-1 5 1 12 0 18 0 10-1 20-1 30 3 1 0 1 0 2 1 9 2 11 5 11 14 0 4-1 8-1 12 0 5-3 9-9 10-10 4-20 4-30 4-11-1-22-1-32-1-3 0-7-1-11-1 19 31 37 60 56 90 0 0 1 0 1 0 1-2 1-4 1-5 2-5 3-11 5-16 1-3 3-7 1-11 0-2 0-3 0-5 0-7 5-9 10-6 6 4 13 5 20 4 5-1 9 2 8 8 0 7 0 15-2 22-2 9-5 18-7 28-1 7-1 13 3 19 5 8 8 16 12 23 2 4 5 7 6 10 2 7-1 12-8 12-2 0-5 0-7 0-6-1-11-1-17 2-4 3-8 2-12-2-1-2-3-5-5-7z m-3-40c-3 2-8 4-8 10 0 0-1 1-1 2-4 4-7 8-11 12 4 1 7 4 8 9 5-2 10-4 12-9 2-4 6-6 10-5 5 2 6 6 4 10-1 3 1 6 4 6 6 0 12-1 18-2-2-4-4-8-6-12-3 4-6 7-11 5-3-2-5-4-4-8 1-5 5-7 10-7-12-15-5-30-3-45-5 1-10 1-12-4-2-4-1-7 1-9 4-5 9-3 14-1 0-4 1-8 2-13-5-1-9-2-12-3-3 5-5 10-6 14-1 2-3 5-3 7-1 7-1 15-2 22 0 2-1 4-3 5-1 0-4 0-5-2-6-5-11-11-16-17-1-2-2-3-3-4-2 2-4 3-6 5 2 4 5 8 7 12 3 4 5 8 8 12 2-1 4-2 6-2 7-2 10 4 8 12z m-35 12c0 0 0 0 0 0 2 0 5 0 7 0 5 1 7-3 9-6 1-1-1-4-2-6 0-2-1-3-2-4-7-11-13-23-20-35-3-5-5-11-11-15-1 0-3-1-3-1-5 2-10 4-15 7-6 4-10 9-9 17 1 6 1 13 2 20 0 5 3 10 4 15 0 0 1 1 1 1 6 3 12 8 19 8 7 0 13-1 20-1z m-44-139c-4 1-8 2-11 3 6 10 15 20 18 32 3 10 4 10-4 16-1 0-1 0-1 1 5 6 4 12-2 15-6 3-12 1-16-8-7 7-11 15-9 25 4-3 8-3 11-2 5-3 8-7 12-9 5-4 11-6 16-9 1 0 2-2 2-2-1-4 0-7 3-9-5-4-6-8-2-11 2-2 6-2 8 0 3 3 2 7-3 11 7 9 14 17 20 26 3-1 5-2 7-3-10-15-19-31-29-47-6 4-10 4-13 0-3-4-1-8 6-13-5-5-9-11-13-16z m54-31c-14-1-29-1-44-2 1 3 2 4 2 5 7-2 10-1 13 3 2 4 1 8-2 10-4 2-8 1-13-5-3 2-7 4-11 1-2-2-4-6-6-10-9 3-15 13-10 20 6-9 11-9 18 0 9-4 18-1 26-2 1-3 1-6 2-8 0-2 1-3 2-5 1-3 3-5 6-4 3 1 5 4 3 6-3 4 0 7-2 11 1 0 2 1 2 1 14-1 27-1 41-1 6 0 6-2 5-8-1 0-2 1-4 1-3 0-6-1-7-5 0-6-4-5-8-5-1 4-3 7-8 6-5-1-5-5-5-9z m-39 188c1-5 0-7-4-9-4-1-7-3-11-5-5-3-7-7-8-12 0-2-1-4-1-6-1-3-2-7-3-10-1-6-1-11-2-18-6 2-10 0-13-5-1 8-2 15-2 23 8-1 12 1 13 5 0 2 0 5-1 6-3 2-6 4-9 6 0 1 0 2 0 3 0 4 2 6 5 8 12 4 24 9 36 14z m33 6c2-5 3-8 4-12-6 0-12 0-18 0-1 0-2 1-2 2-2 3-3 5-4 9 7 1 14 1 20 1z"/>
    </symbol>

    <symbol id="icon-gp-ampersand-21" viewBox="0 0 512 512">
      <path d="m263 213c7 7 18 9 22 18 8-5 16-3 24-2 5 0 10 1 16 2 11 3 15 6 17 21 0 3 0 7-1 11-5 14-8 29-10 44-1 4 0 6 2 9 5 9 10 18 15 27 5 10 0 18-11 18-12 0-24 1-36 1-3 0-7-1-10-2-4-2-7-2-10-1-9 2-18 5-27 7-10 2-20 0-30-2-4-1-8-2-12-3-8-1-15-4-21-9-4-3-8-5-11-8-5-5-9-11-13-17-1-2-2-4-2-5-1-13-4-25-2-37 0-2 0-5 0-7-4-22 4-33 21-46 2-2 5-4 8-6 0 0 0-1 0-1-7-5-12-12-17-19-1-2-3-3-4-4-6-4-8-9-6-15 0-2 1-5 2-7 4-8 7-15 11-23 3-6 8-8 13-8 25-1 50-3 75-4 12 0 24 1 37 3 5 0 10 3 14 6 2 1 4 4 4 7 1 6 1 12 2 18 0 2 0 5 0 7 1 5 1 10 1 15 1 7-3 12-11 12-15 0-30 0-45 0-2 0-3 0-5 0z m55 39c-7 0-13 0-19 0 0 3 0 7-1 10 0 8-1 15-2 23 0 3-3 5-6 5-3 1-4-2-5-4-1-3-2-5-3-8-2-2-4-4-5-7-3-4-5-9-9-13-7-7-12-16-18-26-2-4-7-8-7-14 0 0-1 0-1-1-8-6-16-11-23-18-1-2-2-5-2-6 1-2 4-4 5-4 15 0 30 0 45 0 0 0 1 0 2-1 4 0 7 0 11 0 4 0 9 1 14 1 6 1 7 0 5-7 0-1 0-2 0-4 0-2-2-3-4-3-7 0-14 0-21 0-18-1-37 1-55-3-6-1-11 0-16 0-4 0-6 0-6 4 0 2-1 3-1 5-1 4-2 8 1 11 5 6 9 11 13 17 2 3 4 6 6 9 1 3 2 5 4 8 2 2 4 5 7 7 2 1 4 3 3 5-1 2-3 4-5 5-4 1-8 2-12 3-13 4-21 14-23 28-1 7-2 15-3 23 0 3-1 6-1 8 1 6 3 12 5 18 1 2 2 4 4 5 4 3 8 4 12 6 8 4 16 9 25 9 7 0 14 3 20-3 1 0 2 0 3 0 12 0 23-3 33-7 7-2 9-1 13 4 1 2 3 4 5 4 5 0 10 0 16 0 0-2-1-2-1-3-5-6-10-12-16-18-3-3-4-6-2-10 1-4 2-8 3-12 2-6 3-12 6-17 4-9 4-19 6-29z m-70 77c-2 0-4 0-6 0-9 1-18-1-26-5-5-3-6-8-8-13-1-2-1-5-1-7 0 0 0-1 0-1-5-9-1-17 1-25 1-4 2-9 5-12 2-4 6-6 10-9 4-2 7-4 11-6 3-1 6-1 9 1 2 3 5 5 7 8 6 10 13 19 19 29 4 5 7 11 11 17 1 1 2 2 3 3 1 1 2 2 3 3 2 4 1 6-2 8-7 4-15 5-23 6-4 1-9 2-13 3 0 0 0 0 0 0z"/>
    </symbol>

    <symbol id="icon-gp-ampersand-22" viewBox="0 0 512 512">
      <path d="m348 353c-5-6-7-15-15-18 0 0 0-1 0-1-3-4-5-8-8-13 1-1 2-2 2-3 3-10 6-20 8-30 2-13 6-26 11-38 1-3 0-5-2-7-5-3-9-7-14-11-1 0-3-1-4-1-9 2-18 0-26-2-6-2-8-1-9 5-1 6-1 12-2 18-1 6-2 11-3 16 0 0-1 0-1 0-16-24-37-44-47-71 1 0 2 0 3 0 20 1 39 2 58 0 3 0 7-1 10-3 3-3 5-7 7-11 2-5 3-11 5-17 0-1 0-2-1-3-3-4-6-7-10-10-4-3-8-5-13-7-1-1-2-1-3-1-2 0-5 1-7 1-7 0-15-1-23-1-14 0-29 1-44 1-13 1-25 2-38 3-2 0-4 2-4 3-3 9-4 17 4 24 0 0 1 1 1 2 7 12 14 23 20 35 2 1 3 3 4 6-1 1-2 1-3 1-21 11-37 26-41 50-2 9-2 19 2 28 1 4 2 8 3 12 2 8 2 17 11 21 1 0 1 1 2 1 5 8 11 15 20 19 2 1 4 2 6 3 17 12 36 15 57 9 11-3 22-7 31-14 3 4 7 7 9 11 3 3 5 5 9 4 10-1 21-2 31-3 7-1 8-4 4-8z m-108-91l28 41c1 2 2 3 3 5-2 1-4 2-6 3-6 1-11 2-17 2-7 1-14 2-21 3-6 1-10-2-10-9 0-7 1-14 1-22 0-1 1-3 1-5 0-10 5-17 16-20 2-1 4 0 5 2z m60-105c14 4 17 12 8 27-2-2-5-3-7-5-1-1-2-2-2-2 1-7 1-14 1-20z m-73 22c10 0 21-1 31-1 3 0 7 0 11 1l25 2c2 3 6 6 9 9-1 0-2 0-3 0-8 1-16 1-24 2-5 0-10-1-15-1-9 0-18 0-28-1-1 0-2 0-3-1-2-3-4-6-7-9 2-1 3-1 4-1z m-17 135c-6-2-9-7-11-13-4-10-6-21-1-32 3-5 6-10 10-15 4-5 11-7 17-7 2 0 5 3 8 5-2 1-2 2-3 2-5 1-8 4-12 8-4 5-6 11-7 18 0 6-1 13-1 20 0 5 0 9 0 14z m65 40c-12 4-25 6-38 6-9-1-17-6-26-10 28 3 55 2 80-14 1 1 2 3 4 5-5 7-13 10-20 13z m37-53c9-19 11-39 17-58 0-1 1-1 1-2 3 2 5 4 7 6 1 1 1 3 0 4-2 11-5 23-8 34-3 10-6 21-9 31-3-3-6-6-8-9-1-1-1-4 0-6z m26 55c-7 0-14 0-21 1-4 0-6-1-9-4-2-3-4-5-7-8 10 0 18 1 26 0 7-2 10 2 12 7 1 1 1 2 2 3-1 0-2 1-3 1z"/>
    </symbol>

    <symbol id="icon-gp-ampersand-23" viewBox="0 0 512 512">
      <path d="m341 351c-2-3-5-5-7-9-3-5-6-10-9-15-2-3-3-6-2-9 3-14 8-27 13-39 4-9 6-19 6-30 0-2-1-6-3-6-6-3-12-6-19-6-6-1-13 1-19 2-2 0-3 1-4 2-2 8-5 17-8 25 0 2-1 3-1 5-16-25-32-49-48-74 1 0 3 0 4 0 15 0 30 0 45-1 6 0 11-1 17-1 6 0 8-2 8-7 1-5 0-9 1-13 1-9-4-16-10-21-3-2-7-4-11-4-6-1-11 0-17 0-21 1-43 2-64 3-6 0-13-1-19-1-8 0-11 3-11 11 0 2 0 4 0 6-1 6-2 11 1 16 6 9 12 19 18 28 3 5 7 9 11 14-5 2-9 3-14 4-10 2-17 8-23 16-3 5-5 11-4 17 1 6 1 11-1 16-2 8-2 16-1 24 0 5 1 10 3 14 6 8 10 19 20 23 2 1 3 3 4 4 3 2 5 5 8 6 11 6 23 9 36 10 10 1 20 1 30 0 10-1 20-3 29-9 1 1 2 3 3 4 2 5 5 7 10 6 8 0 16-1 24-1 5-1 7-5 4-10z m-110-142l25 40 21 28c2 3 5 6 8 9 2 2 5 2 7-1 1-1 1-3 1-4 3-11 5-22 9-33 1-1 2-2 3-3 5 0 9 0 15-1-2 8-3 16-4 23-1 8-3 15-5 23-1 5-2 10-5 15-1 4-1 6 1 9 5 9 10 18 15 27 1 0 1 1 2 2-5 0-10 0-15 0-1 0-1-2-2-3-2-4-4-8-7-11-2-3-5-3-7 0-7 10-17 13-28 13-11 1-22 2-33 2-14 0-27-4-39-13-1-1-3-3-4-5-1-1-2-3-3-5-10-12-10-25-7-39 1-3 1-7 1-11-2-14 7-28 22-31 6-1 12-3 18-5 3-1 5-3 3-6-3-4-6-9-10-13-10-11-17-23-22-37-1-1-1-4-1-6 0-3 1-6 1-9 0-3 1-4 3-4 5 1 9 1 13 1 24-1 47-2 70-3 5-1 9-1 14 0 1 0 3 1 3 2 0 4 0 9 0 13 0 3-1 3-4 3-7 0-14 0-22 0-14 1-28 1-43 1-3 0-5 0-8 0-2 0-4 2-5 3 0 2 1 4 2 6m34 145c-11-2-22-3-33-5-7-2-12-5-14-13 0-5-2-9-3-14-3-6-1-12 1-18 2-6 4-13 6-19 1-3 4-6 6-8 5-4 11-7 16-9 3-1 6-1 9 2 1 2 3 4 4 7 6 13 17 23 27 33 8 7 14 15 18 25 1 3 1 5-1 6-8 5-16 9-26 10-3 0-6 1-10 2 0 0 0 0 0 1z m-44-40c1 7 3 14 5 20 1 5 4 7 7 7 9 2 18 3 27 4 11 1 20-3 29-6 5-2 5-3 3-7-6-12-16-21-25-30-6-6-11-13-15-21-1-1-2-3-3-4-1-1-3-2-4-1-7 3-16 6-17 17 0 0 0 1-1 2-2 6-4 13-6 19z"/>
    </symbol>

    <symbol id="icon-gp-ampersand-24" viewBox="0 0 512 512">
      <path d="m206 245c-3-2-5-4-7-5-8-6-15-14-19-24-8-17-4-39 16-51 18-11 39-14 60-13 16 0 31 6 45 15 4 2 6 5 6 10 2 13 0 26-5 38-5 10-14 17-24 21-16 8-33 14-49 22-9 4-18 10-27 15-9 5-9 14-10 23-1 9 0 18 0 28 1 6 3 9 10 11 20 4 39 2 59-2 7-2 11-6 14-13 4-8 10-15 14-23 2-4 4-8 6-12 5-9 9-18 15-26 2-4 6-6 9-8 4-3 8-2 11 1 3 4 2 7 0 11-5 12-11 23-16 35-1 1 0 4 1 5 14 11 22 25 26 43 1 7-2 12-7 14-6 1-12-3-13-9-3-11-7-20-14-28-2-2-3-4-4-6-1 0-1 1-2 1-2 3-4 7-6 10-5 16-17 24-32 27-16 2-32 4-47 3-11 0-21-1-31-7-7-4-12-11-13-19-2-18-2-36 2-53 2-11 9-18 18-24 4-3 9-6 14-10z m80-56c1-5-1-6-5-8-11-6-24-9-37-8-13 1-26 4-38 11-11 7-10 20-5 27 4 5 9 9 14 14 3 3 6 5 9 8 2 3 3 3 6 2 12-6 24-12 36-17 14-6 20-15 20-29z"/>
    </symbol>

    <symbol id="icon-gp-ampersand-25" viewBox="0 0 512 512">
      <path d="m307 323c-4 7-7 13-10 19-3 6-9 11-16 13-14 5-29 6-44 4-8-1-17-1-26-2-7-1-15-1-23-4-10-3-25-17-25-31 0-11-1-22-1-33-1-9 3-17 8-24 2-2 4-3 7-5 8-4 17-9 26-13 1-1 2-2 3-3-5-3-10-6-15-9-6-4-11-8-15-13-3-3-4-8-5-13-1-6-2-12-2-19-2-20 4-30 23-37 14-5 29-5 45-6 4 0 9 0 14-1 10-1 20 0 30 4 11 5 18 13 20 25 1 4 2 8 3 12 8 18 0 46-25 53-17 5-35 11-52 17-12 4-24 10-33 19-8 7-10 15-9 25 0 2 0 4 0 6-1 9 4 17 10 23 4 3 10 5 16 6 17 1 33 2 50 2 9 0 15-5 19-12 6-10 10-21 16-31 4-8 10-16 15-25 2-3 4-6 5-10 1-4 3-7 9-6 3 0 6-1 9-1 5 1 6 2 4 7-5 9-10 18-15 28-2 4-6 8-5 12 0 4 4 8 7 11 13 10 17 25 25 38 1 3 0 5-4 5-4 1-8 1-12 1-4 0-9-4-11-8-4-7-8-13-11-19-1-2-3-3-5-5z m-23-132c1 0 1 0 2 0-3-7-6-13-9-20 0-1-1-2-2-2-6-2-13-5-19-6-13 0-26 2-40 3-6 0-10 4-13 9-4 6-7 12-8 19-2 11 2 19 10 26 2 3 6 6 9 8 4 4 8 7 14 7 2-1 4 1 6 1 2 0 4 1 6 0 12-3 23-10 33-17 2-1 3-2 4-4 5-7 8-15 7-24z m-94-30c-11 4-16 11-14 24 1-4 2-6 3-9 1-3 2-6 3-9 2-3 5-3 8-1 0 1 1 1 2 1 0 0 1 0 1 0-1-2-2-4-3-6z m-10 160c0 7 5 13 10 14-4-5-6-9-10-14z"/>
    </symbol>

    <symbol id="icon-gp-ampersand-26" viewBox="0 0 512 512">
      <path d="m256 153c6 2 12 4 18 5 7 1 12 4 17 9 10 9 10 9 9 23-1 10 0 20 0 31 0 2-1 5-3 7-10 12-22 20-37 25-17 6-33 14-49 21-4 2-7 2-11 3-1 0-3 1-3 2-2 5-5 10-6 15-2 8-1 17-1 25 0 2 1 4 2 7 5 8 11 10 21 10 12-1 25 0 37 0 3-1 6-2 9-3 11-6 20-15 29-25 2-1 3-3 4-6 6-14 13-28 19-42 1-3 3-4 6-4 6 0 12 0 18 0-1 2-1 4-2 5-7 15-15 29-22 44-1 2-1 4 1 6 8 8 16 16 23 25 5 6 9 13 13 21-7 0-13 1-20 2-1 0-3-2-4-3-6-7-12-15-18-23-1-1-2-2-2-3-6 8-12 16-18 24-2 3-5 4-9 4-17 1-35 2-52 3-3 0-5 1-7 1-1 0-2 0-4 0 0 0-1-1-2-1-8-1-16-3-24-4-2-1-5-2-7-3-5-6-10-11-15-17-2-2-2-4-2-5 0-16 0-32 1-48 0-1 0-3 1-4 6-7 12-14 18-20 1-2 4-3 6-4 5-1 11-2 16-3 0 0 0-1 0-1-13-4-21-14-29-24-2-2-4-5-4-8-2-9-5-18-3-28 2-14 8-25 20-32 2-1 4-3 7-3 11-1 22-1 34-2 6 0 11-1 17-2 3 0 5 0 8 0z m26 51c0-2 0-5-1-8-2-5-5-11-8-16 0-1-1-3-3-3-7-1-14-4-21-4-11 1-22 4-33 4-9 1-13 5-17 12-1 4-3 6-5 10-1 1-2 2-2 3 1 14 4 25 18 31 4 2 9 4 12 7 5 3 9 3 14 0 2-1 5-2 8-3 9-2 17-5 25-10 8-6 13-12 13-23z"/>
    </symbol>

    <symbol id="icon-gp-ampersand-27" viewBox="0 0 512 512">
      <path d="m251 150c4 1 8 2 11 2 12 1 23 4 33 10 5 4 8 7 9 13 0 4 1 7 2 11 2 16-1 32-9 46-1 2-3 3-5 4-14 9-29 16-45 20-16 5-31 11-46 16-2 1-3 2-4 3-1 2-2 4-3 6-8 12-7 24-6 37 2 12 9 17 19 21 15 6 30 5 45 4 16-1 27-10 34-24 10-18 19-37 29-56 2-3 3-5 7-5 4 0 9 0 13-1 0 2-1 4-1 6-6 14-11 27-17 41-1 3 0 6 2 8 12 11 20 26 28 41 0 1 0 1 1 2-6 1-12 2-17 3-3 0-5-1-5-4-4-12-12-20-21-28-3 4-6 7-8 11-6 10-15 18-26 23-4 2-8 1-13 0-6 0-13-2-20-1-16 0-31-5-46-5-11-1-17-6-21-15-1-3-4-7-7-10 0-3 0-5 0-7 0-5 1-11 1-16 1-13 3-26 11-37 1-2 2-4 4-4 10-5 20-9 29-14 1 0 3 0 5-2-7-4-14-6-19-11-7-5-13-11-18-18-7-10-8-22-2-35 1-1 1-2 1-3 4-6 6-13 12-17 9-6 18-11 30-12 5 0 11 0 16-1 5 0 10-1 16-2 0 0 1 0 1 0z m35 50c3-9-1-16-8-22-1-1-2-3-4-4-1-1-2-2-3-2-10-2-19-4-29-4-8 0-17 2-25 3-11 2-20 11-21 22-1 6-1 12-1 18 2 12 9 20 21 24 1 0 1 0 1 0 11 8 21 8 33 2 9-4 19-7 26-14 8-7 13-13 10-23z"/>
    </symbol>

    <symbol id="icon-gp-ampersand-28" viewBox="0 0 512 512">
      <path d="m298 349c-3 1-5 3-7 4-13 10-29 12-45 9-6 0-12 0-18-1-8-1-15-4-22-8-4-3-9-5-14-7-12-4-20-11-19-25 0-15 1-30 5-44 4-10 10-19 19-26 1-1 3-2 5-4-1-1-2-1-2-2-18-8-24-24-25-42-1-20 11-38 31-46 20-8 41-11 63-6 16 5 29 13 35 31 2 6 5 12 8 18 4 11 1 21-3 31-8 15-21 24-36 31-1 0-3 1-5 2 8 6 15 10 23 15 3-5 6-11 8-16 2-3 3-6 5-9 4-7 11-7 17-2 1 2 3 3 5 4 8 6 10 10 7 19-3 10-6 20-9 29-1 3-1 5 1 7 10 9 14 21 14 34 0 0 0 0 0 0-1 3-1 6-3 7-6 2-6 12-15 12-1-1-3 0-5 0-8 1-12-1-15-8-1-3-2-5-3-7z m-61-115c3-1 7-3 10-5 12-7 24-15 36-23 6-5 6-11 1-16-3 0-6 1-9 1-14-3-27-2-40 4-14 6-15 23-4 32 2 2 4 4 6 7z m42-55c-1-1-1-2-2-2-7-3-13-7-21-7-13-2-27 0-40 5-14 5-22 16-21 28 1 9 3 18 12 24 4 3 9 6 14 9 1 1 2 1 4 2-1-2-2-3-4-4-11-9-16-30-1-42 4-3 9-6 14-8 14-6 29-7 45-5z m-45 104c-8 8-10 16-8 26 1 4 1 9 4 13 3 4 8 10 15 8 5-1 9-1 13-1 6-1 11-3 14-8 2-2 2-4 0-6-4-3-7-6-10-9-9-8-19-16-28-23z m-10-5c0-1 0-1 0-1-11-11-19-10-24 4-5 13-7 27-6 40 0 2 1 4 3 4 7 2 15 3 24 5-9-19-12-37 3-52z m22-25c5 4 9 7 15 3 2-1 4-2 7-3 13-6 25-13 32-28 1-3 2-5 3-8-17 15-36 27-57 36z m34 50c1-2 4-4 0-7-11-7-22-14-33-21-1-1-2 0-3-1 12 10 24 19 36 29z m42-34c-1 0-1 0-2 0-3 6-6 13-10 20-2 4 0 6 3 7 3-9 6-18 9-27z m-31 67c-1-1-1-1-2-2-7 9-15 13-25 16 9 0 16-5 23-9 2-1 3-4 4-5z m18-3c0 1-1 2 0 3 1 4 3 7 5 11 1 1 3 1 4 1 0-1 1-3 0-4-3-3-6-7-9-11z m-76-64c1 0 1-1 1-1-4-2-6-8-12-7 0 1 0 1-1 1 4 3 8 5 12 7z m67 55c4-4 3-6-4-7 2 3 3 5 4 7z"/>
    </symbol>

    <symbol id="icon-gp-ampersand-29" viewBox="0 0 512 512">
      <path d="m317 312c5 3 9 6 14 10 4 3 9 7 13 11 4 4 3 11-3 13-5 2-8 6-11 10-4 7-10 8-16 2-7-6-13-12-20-17-1-1-2-1-3-1-2 1-5 3-7 4-9 8-19 14-30 18-3 1-6 2-9 4-10 4-21 3-31 1-4-1-7-1-10-2-16-1-26-11-33-23-4-7-6-15-5-23 0-7 0-13 1-20 0-5 3-10 4-16 1-3 3-5 4-8 3-5 5-9 8-13 2-3 3-6 5-9 6-7 12-15 19-23-2-2-5-4-7-7-6-7-11-13-16-20-2-3-3-7-3-11-2-11 0-22 5-32 2-3 4-7 7-10 4-4 10-5 16-6 7-1 14-2 21-2 14-1 25 4 34 15 2 3 4 5 6 7 7 10 7 23 0 33-6 10-12 20-19 30 0 1-1 3-2 3-3 2-3 4-1 7 7 10 15 20 22 30 5 6 10 11 15 17 2 1 3 2 6 4 4-7 8-14 13-21 1-2 3-6 5-8 2-3 6-4 9-1 7 6 14 12 19 19 4 5 1 10-1 14-4 8-10 14-17 18-1 1-1 1-2 1 0 0 0 1 0 2z m-44 6c-3-3-4-6-7-8-10-9-16-22-24-33-5-8-11-16-17-24-2 3-4 5-6 8-6 8-12 16-15 26-4 9-6 18-5 28 1 2 1 5 3 7 7 9 16 16 28 17 4 0 7-2 10-3 12-3 23-9 33-18z m12 12c-1 0-2-1-3-2-2-2-4-3-6 0-2 2-5 3-7 5-10 4-20 9-31 13-8 4-17 4-25-1-3-2-5-4-8-6-15-10-21-30-15-47 3-7 6-14 9-22 1-1 2-2 3-3 6-8 12-15 18-23-3-6-5-6-9-1-4 4-8 9-12 14-3 4-5 8-7 11-3 4-5 7-7 11-3 8-6 16-8 24-1 5 0 11 0 17-1 6 1 12 4 18 4 7 10 13 17 15 10 3 20 4 29 5 12 1 22-5 32-9 10-3 18-10 26-19z m-70-153c0-4 1-7 5-9 4-3 9-4 14-2 4 1 8 3 12 5 6 2 10 12 10 18-1 8-4 16-11 22-2 2-3 4-5 6-2 1-1 3 1 5 1-1 1-2 2-3 0-1 1-2 2-2 8-8 12-18 18-28 3-5 2-14-2-18-3-4-6-7-10-10-3-2-6-4-9-5-12-3-23-1-34 0-5 1-9 4-11 9-1 3-2 6-4 9-4 9-3 18 1 25 6 9 14 16 21 24 3-2 5-3 7-5 3-1 3-3 2-6m57 98c2-3 4-7 5-10 1 0 0-2-1-2-8-8-17-15-23-25-7-11-15-20-22-31-2-3-4-2-6-1-3 1-2 3-1 5 5 6 9 13 13 19 6 9 11 18 17 26 5 6 12 12 18 19z m33-39c0-1 1-1 1-1 0 0-1 0-1 1-4 7-6 14-12 20-1 1-1 3-1 4-1 2 6 9 8 9 0 0 1-1 1-1 7-4 13-10 17-17 1-1 1-3 0-4-4-4-8-7-13-11z m-5 48c-3 4-6 7-8 10 0 1 0 3 1 4 6 6 13 12 19 18 5-5 6-12 14-13-9-7-18-13-26-19z m-77-111c4-4 7-7 10-10 3-4 3-12 1-15-4-5-9-6-15-7-1-1-3 0-3 3 0 10 3 19 7 29z m60 115c2-2 4-5 6-7 3-5 3-5-2-8-3 4-6 7-9 11 2 1 3 2 5 4z m-69-92c1 2 2 3 3 5 7-5 7-7 4-10-2 2-4 4-7 5z"/>
    </symbol>

    <symbol id="icon-gp-ampersand-30" viewBox="0 0 512 512">
      <path d="m192 255c-6-8-13-15-18-23-3-8-5-16-6-25-1-4-2-10 0-14 4-8 9-15 14-22 3-3 7-7 11-8 17-3 32-14 50-16 10-1 19-3 29-1 14 3 26 10 37 19 9 7 12 16 12 27 0 7-1 14-2 20 0 3-2 6-4 8-8 8-17 16-26 24-3 2-6 4-9 5-14 4-25 13-37 20-8 5-16 9-24 14-7 5-7 14-2 20 9 9 19 15 32 14 7-1 13-1 20-2 3-1 5-4 8-6 3-3 7-7 11-10 5-4 8-9 9-15 1-2 2-4 3-7 1-5 3-10 5-15 1-5 2-10 4-14 2-4 6-5 10-6 6 0 12 0 18 0 10 1 15 7 13 17-1 9-4 19-6 29-2 6-2 10 3 15 10 11 12 25 16 39 2 9-2 14-12 14-5 0-10 1-15 3-5 2-10 2-14-2-3-4-6-7-8-10-10 5-20 9-29 13-17 8-34 9-52 4-17-4-34-10-48-22-4-3-7-7-11-11-1-1-2-2-2-3-2-10-7-20-3-30 3-9 6-18 10-27 2-5 7-8 10-13 1-1 2-2 3-3z m129 5c1 9-2 17-6 25-1 1-1 2-1 3-2 7-3 14-9 19-6 5-12 12-18 18-2 1-4 2-6 3-15 9-31 5-46 3-12-1-21-10-30-18-11-10-8-35 4-42 10-6 20-13 31-18 8-5 17-10 27-13 11-5 21-11 29-20 9-11 12-23 8-36 0-2-1-4-3-5-12-12-26-20-44-21-24-1-45 7-62 24-11 11-11 25-5 37 7 13 18 21 32 24 3 0 6 1 6 5 0 4-3 5-6 6-4 0-8 0-11 0-2 3-4 6-6 9-7 9-14 19-18 30-3 6-5 13-1 20 0 1 0 4 1 5 0 2 1 3 2 4 7 8 16 15 26 18 11 4 23 9 35 10 18 0 33-7 49-15 2-1 4-4 5-6 2-6 8-8 13-4 3 2 5 4 7 7 5 8 11 12 20 7 0 0 1 0 1-1-2-9-5-19-12-26-8-7-9-15-6-24 1-2 1-3 1-4 1-8 3-16 4-24-4 0-7 0-11 0z"/>
    </symbol>

    <symbol id="icon-gp-ampersand-31" viewBox="0 0 512 512">
      <path d="m338 341c-6-9-12-17-17-26-2-2-2-5-2-8 0-10 4-20 6-30 2-10 4-20 6-31 1-5 0-9-4-13-5-3-10-4-15-1-5 3-8 8-10 14 0 4-1 8-1 12-1 6-2 12-4 19-22-34-44-66-66-98 2 0 4 0 6 0 23 0 46 2 69-1 8-1 15-5 16-11 3-10-4-19-14-19-13 0-26 1-38 0-25 0-50 1-75 3-9 1-14 10-10 18 1 3 3 6 5 8 12 14 24 27 34 42 0 2 1 3 2 5-6 1-11 2-16 3-19 3-36 24-38 46-1 13 0 27-1 41 0 16 7 27 20 35 13 8 27 11 41 10 9 0 17-1 26-1 11 0 22-1 33-5 5-2 11-4 16-6 3 3 6 7 9 11 5 7 14 8 20 3 6-5 6-13 2-20z m-55-15c-10 4-20 5-32 4-9 0-20 1-30 0-5 0-10-3-15-5-5-2-7-6-7-11 0-13 0-25 1-38 1-10 7-21 20-23 7-1 14-2 21-4 3 0 4 1 5 3 10 14 20 29 29 44 4 7 8 14 12 22 2 3 0 6-4 8z"/>
    </symbol>

    <symbol id="icon-gp-ampersand-32" viewBox="0 0 512 512">
      <path d="m334 364c-7 0-14 0-21 0-8-2-12-8-16-14-2 2-3 3-5 4-6 2-12 6-18 6-22 3-44 0-65-5-16-4-28-12-34-27-4-11-6-22-6-34 0-13-1-26 3-38 4-14 10-25 24-31 3-1 5-2 8-3-1-1-3-3-4-4-6-7-12-13-19-20-2-3-3-6-3-10 1-9 2-17 2-26 0-7 8-16 16-15 7 0 14 0 21 0 18 0 36 0 54 0 7 0 15 0 22 1 16 1 23 9 22 23-1 6-1 12-2 19 0 6-5 11-11 11-3 0-6-1-8-1-9-2-17-3-25-2-6 0-12-1-17-1-2 0-3 0-5 0 7 10 13 20 20 28 7 9 15 17 23 26 1-3 2-7 3-11 3-9 7-11 17-10 6 1 12 2 19 4 8 1 12 7 10 15-2 11-4 22-10 32-1 3-2 7-3 11-1 6-1 12-2 18 0 3 1 5 2 7 5 10 10 19 15 29 4 9 2 13-7 18z m-40-185c1-2 1-5 1-7 1-4-1-5-4-5-6 0-12-1-19-1-10 0-21 0-31 0-13-1-26-1-39-2-2 0-3 1-3 4 0 5 0 10 0 15-1 4 1 6 3 9 8 8 16 16 24 25 2 3 5 6 6 10 2 7-4 13-12 12-10 0-20 2-24 11-4 7-6 14-7 22-1 14-1 29 3 44 2 9 7 16 17 19 20 5 40 8 61 7 6 0 13-1 17-6 7-8 16-6 22 0 2 2 4 5 5 7 2 3 5 3 8 2-1-1-1-1-1-2-4-6-8-12-11-18-2-4-4-8-3-12 0-10 1-20 3-30 2-8 6-17 9-26 2-6 2-6-5-7-3-1-4 0-5 3-2 9-7 18-6 29 0 0 0 1 0 2-2 5-5 8-9 9-5 0-9-2-11-7-2-5-4-10-6-15-3-8-6-16-13-22-4-3-8-7-11-11-3-3-6-7-8-11-6-9-12-19-21-26-3-2-5-5-8-8-3-2-4-6-3-10 2-4 5-6 9-6 7 0 15 0 23 0 9 1 17 3 26 2 8-1 15 0 23 0z m-9 130c-5-7-10-15-15-22-6-10-11-20-17-30-4-6-9-9-15-7-6 1-12 2-18 5-9 3-15 10-18 20-2 9-1 17 0 26 2 13 10 21 22 25 11 4 22 6 30 6 11 1 19-1 26-4 9-4 11-12 5-19z m-44 3c-4 0-8-2-12-3-5-2-8-6-9-11 0-6 0-12 0-18 0-5 3-7 7-9 3-2 7-3 10-4 10 15 19 31 28 46-8 2-16 1-24-1z"/>
    </symbol>

    <symbol id="icon-gp-ampersand-33" viewBox="0 0 512 512">
      <path d="m216 234c-2-2-3-4-5-6-8-11-17-21-25-32-5-6-6-14-7-21-2-5 2-11 8-12 2-1 4-2 6-3 5-3 10-7 16-10 3-2 7-3 11-2 14 1 29 3 44 5 6 1 12 3 18 5 4 2 10 2 14 3 4 1 9 1 12 2 7 3 11 9 10 15-1 7-6 12-14 12-6 0-11 0-17 0-8 0-16 1-23 1-7 0-13 0-19-1-6-2-11-1-15 3 2 3 4 6 6 10 4 9 9 18 13 27 1 2 2 3 5 3 11 0 15 6 14 16 0 1 1 3 1 4 6 6 12 12 18 18 0 1 0 1 1 3 2-6 6-9 4-15-3-6-1-13 5-17 2-2 4-4 6-6 3-3 7-4 12-3 4 2 6 5 8 10 3 10 2 20 0 30-1 1-1 2 0 3 1 8-1 15-3 22-2 4-3 7-5 11-2 4-2 7 1 10 5 5 10 10 14 14 4 4 7 6 10 10 5 5 5 11 1 16-4 5-10 6-16 3 0 0-1 0-1 0-7-5-15-10-23-16-4-3-8-2-12-1-2 0-3 1-4 1-12 8-25 11-39 12-11 1-21 2-32-2-4-1-8-3-11-5-10-8-20-16-29-26-8-8-7-18-3-27 4-9 8-18 12-28 1-2 1-4 1-7 4-13 10-25 26-28 1 0 1 0 2 0 1 0 2-1 4-1z m1 85c3 4 7 7 9 11 1 2 2 3 5 3 7-1 15-1 22-3 6-1 11-3 16-5 5-2 5-5 2-9-6-8-13-16-19-24-4-5-7-10-11-15-2-4-4-8-6-11-1-1-3-1-4-1-5 1-10 2-15 4-5 1-7 4-6 9 1 6 2 13 4 19 0 1 0 2 1 3 4 7 6 13 2 19z"/>
    </symbol>

    <symbol id="icon-gp-ampersand-34" viewBox="0 0 512 512">
      <path d="m290 138c7-1 7 0 11 6 1 1 4 2 7 2 0 0 2-1 2-2 2-3 4-5 7-4 3 1 5 3 6 5 2 3 0 6-3 8 0 1-1 1-1 2 0 6-2 13 1 19 1 2 1 6 0 8-1 1-5 2-7 2-6 0-12 0-19 0-1 0-2 2-3 2-3 2-5 5-7 5-3 1-6-2-7-4-3-3-9-3-12 0-3 4-7 4-10 0-1-1-2-2-2-2-7 0-14 0-22-1 2 3 4 4 5 6 5-4 9-4 11-1 3 3 2 6-3 11 4 3 8 7 11 11 1 1 3 0 4 1 2 0 5 0 6 1 1 1 0 4-1 5-2 3 1 5 2 7 1 1 3 3 4 3 7 0 11 5 7 11-2 3 2 4 3 7 1 2 2 2 4 1 6-1 11 4 8 9-2 4 0 7 1 10 1 1 2 2 3 3 2-7 4-14 5-20 2-5 3-10 5-14 0-2 3-5 5-5 2 0 5 2 6 4 1 3 2 4 5 4 6 0 12 0 18 0 3 0 5 2 4 6-1 1-1 3-1 5-2 8-3 15-4 23 0 1 0 3 1 5 2 3 1 5-2 7-1 0-3 1-3 2-2 11-4 22-7 33 1 0 2 0 4 1 3 0 6 3 5 7-1 3 0 4 2 6 3 6 7 11 10 17 2 3 0 12-3 14-3 3-7 2-9-2-1-3-2-3-5-3-3 1-7 0-9 5-1 2-5 2-7-1 0-1-1-2-2-2-3-2-6-4-10-6-2 1-6 2-6 7 0 1-2 4-4 4-2 1-4-1-6-2-2 0-3-1-5-1-4 0-7 1-11 1-3 1-6 1-8 5-2 3-8 2-10-2-1-3-3-4-6-4-2 0-4-1-7-1-1 0-3 1-5 1-3 3-6 2-9 0-1-2-3-3-5-3-8-1-16-1-23-6-1 0-3 0-4 1-3 1-6 2-8-1-3-2-3-5-2-8 0-1 1-2 1-2 0-2-9-12-11-13-6-1-7-6-4-12 1-1 2-2 2-4 0-2 0-5-1-7 0-1-1-3-2-4-1-2-4-4-3-6 0-2 3-4 4-6 1-1 2-2 3-3 0-3 0-5 0-8-5 1-10 1-12-4 0-2 0-5 1-7 3-4 7-2 11-1 0-4 3-8-1-12-2-2 0-5 3-6 3-1 3-2 4-5 2-3 4-6 5-8-2-2-5-3-6-5-1-1-1-3-1-4 1-4 4-5 7-4 4 0 6 3 5 10 8-3 17-6 28-9-3-1-5-3-7-4-3-1-5-2-4-6 0 0 0-2 0-2-3-4-6-9-9-13-6 3-9 3-11 0-3-3-2-6 3-10-3-1-7-1-9-2-4-3-3-7-1-10-1-1-2-1-2-2-2-2-4-4-4-7 1-2 3-4 5-5 2-1 4-1 4-4 0-1-1-3-3-3-3-3-4-6-2-9 1-3 5-5 9-4 5 2 9 2 12-3 2-4 8-3 11 1 1 1 3 2 5 3 6 0 12 1 18 1 1 0 3-1 5-3 3-4 9-4 12 1 2 3 4 3 6 0 3-5 7-5 11-1 1 1 3 2 4 3 2 0 4 0 6 0 4-1 9 1 10-6 0-1 2-2 3-3z m42 111c-7 0-12 0-18 0 0 0-1 1-2 2-1 6-4 13-5 20-1 7-1 14-3 21 0 2-3 4-5 5-3 1-5-1-6-4-4-8-7-16-12-23-6-10-13-19-19-28-6-8-9-19-18-25-5-4-9-10-13-15-5-5-10-11-16-17-2-3-3-5-2-9 2-3 5-3 8-3 11 1 22 1 33 1 15 0 29-1 44-2 10 0 10 0 9-9 0-5-1-7-6-6-4 0-7 1-11 1-29 0-59-1-88-1-8-1-8 0-9 8-1 3-1 7 0 10 4 6 8 12 12 18 8 12 17 23 25 35 3 4 1 6-4 7-10 1-19 4-29 8-4 2-6 4-7 8-3 11-5 22-5 33 0 5-1 10-2 15-3 18 6 39 23 47 4 2 9 3 14 3 19 2 38 7 58 4 7-1 14-1 21-5 1-1 2-3 3-4 1-2 3-4 4-4 2-1 4 1 5 2 1 1 2 4 3 5 0 1 2 3 3 3 6 0 12-1 20-1-2-3-3-5-5-7-3-3-6-7-10-11-5-6-9-12-4-20 0 0 1-1 1-1 3-15 6-30 9-45 1-5 2-10 4-16z m-8-87c0-4 3-7 7-6 4 0 7 3 7 7 0 4-4 7-8 7-4 0-7-4-6-8z m-47-34c0 4-3 7-7 7-4 0-7-3-7-7 0-4 3-7 7-7 4 0 7 3 7 7z m35 64c0 4-3 7-7 7-3 0-6-3-6-7 0-3 3-6 6-6 4 0 7 3 7 6z m-135 166c0 4-3 7-6 7-4 0-7-3-7-7 0-4 3-7 7-6 3 0 6 2 6 6z m181-92c-3 0-6-3-6-6 0-4 3-6 6-6 4 0 6 2 6 6 0 3-3 6-6 6z m-121 110c3 0 6 3 6 6-1 4-3 6-6 6-3 0-6-3-6-6 0-3 3-6 6-6z m-31 0c-3 0-5-3-6-6 0-3 3-6 6-6 3 0 6 3 6 6 0 3-2 6-6 6z m106-258c3 0 6 3 5 6 0 3-2 6-6 6-3-1-5-3-5-6 0-4 3-6 6-6z m-101 4c0 4-3 6-6 6-3 0-6-2-5-6 0-3 2-5 5-5 3 0 6 2 6 5z m151 208c3 0 6 3 6 6 0 3-2 5-6 5-3 0-5-2-5-5 0-3 2-6 5-6z m-23 63c-3 0-6-3-6-6 0-3 2-5 5-5 4-1 6 2 6 5 0 3-2 6-5 6z m-169-246c0 3-2 5-5 5-4 0-6-2-6-5 0-4 2-6 5-6 3 0 6 2 6 6z m-29 160c3 0 5 2 5 5 1 3-2 6-5 6-3-1-5-3-5-6 0-3 2-5 5-5z m100-182c0-3 2-5 5-5 3 0 6 2 5 5 0 4-2 5-5 6-3 0-5-3-5-6z m-62 260c-1-1-3-3-4-5-1-3 3-6 6-6 3 0 4 2 4 5 0 3-2 5-6 6z m168-87c3 0 5 2 5 5 0 3-3 6-6 5-3 0-5-3-5-6 1-3 3-4 6-4z m-69 88c-4 0-6-2-6-5 0-3 2-6 5-6 4 1 6 2 6 6 0 3-2 4-5 5z m12-248c-1 0-2-1-3-1-3-2-4-4-3-7 1-2 5-3 7-2 3 2 3 5 1 8-1 0-2 1-2 2 0 0 0 0 0 0z m53 81c-1 1-3 3-5 3-3 1-5-1-5-4 0-3 2-5 5-5 2 0 4 2 5 4 0 0 0 1 0 2z m-45 187c1 2 3 3 3 5 0 2-3 4-4 4-3 1-5-1-5-4 1-2 3-3 4-5 0 0 1 0 2 0z m-140-175c-1-2-3-4-3-5-1-3 1-5 4-5 2 1 4 3 4 4 0 2-2 4-3 5 0 1-1 1-2 1z m154 150c-1 1-3 3-4 3-2 0-4-3-4-4 0-1 2-4 4-4 1 0 3 2 4 3 0 1 0 1 0 2z m-43-189c2 2 4 4 4 5 0 2-2 4-4 4-1 0-3-2-3-4-1-1 1-3 3-5z m21 20c-1 1-3 3-4 3-2-1-4-3-4-5 0-1 3-3 4-3 1 0 3 2 5 3 0 1 0 1-1 2z m-125-23c-3 2-4 4-6 4-1-1-2-3-4-4 2-1 3-3 5-4 1 0 2 2 5 4z m30 22c2 3 4 4 4 6 0 1-2 3-4 3-1 0-3-2-3-3 0-2 2-3 3-6z m-40 79c-2 2-3 3-5 3-1 0-3-2-3-3 0-1 2-3 4-4 1 0 2 2 4 4z m108 115c-2-3-4-4-4-5 0-2 2-3 3-4 2 1 4 2 4 3 0 2-2 3-3 6z m-91-244c-2 1-4 3-5 3-1-1-2-3-3-4 1-1 2-3 3-3 2 0 3 2 5 4z m200 222c-2-3-3-4-3-5 0-2 2-3 3-4 1 1 3 2 3 3 0 2-1 3-3 6z m-148-245c-1-2-3-3-3-5 0-1 2-2 4-3 0 0 3 2 3 3 0 2-2 3-4 5z m-60 97c1 3 3 4 3 5 0 1-2 3-3 3-1 1-3-1-3-2 0-2 1-3 3-6z m193 4c-1-2-3-3-3-4 1-1 2-3 4-3 1 0 2 2 2 3 0 1-1 3-3 4z m-185-27c-1-3-3-4-2-5 0-1 1-3 2-2 1 0 3 1 3 2 0 1-1 2-3 5z m18-79c-2 2-3 3-4 3-1 0-2-2-3-3 1-1 2-2 3-2 1-1 2 1 4 2z m-32 207c-2-1-3-2-3-3 0-1 2-2 2-3 1 1 3 2 3 3 0 1-1 2-2 3z m161-128c-2 2-3 3-4 3-1 0-2-2-2-2 0-1 1-3 2-3 1 0 2 1 4 2z m-22 14c-1 2-2 3-3 3-1 0-3-2-3-2 0-1 1-3 2-3 1 0 2 1 4 2z m79 70c-1 1-2 3-3 2-1 0-2-1-2-2 0-1 1-2 2-2 1 0 2 1 3 2z m-231-32c-1-1-2-2-2-3 0-1 1-1 2-2 1 1 2 1 2 2 0 1-1 2-2 3z m108 75c-9-1-19-1-29-3-9 0-16-5-20-13-1-1-1-2-2-4 0-14-4-29 0-43 4-13 10-23 24-26 5-1 8-3 13-5 3-1 5 1 6 3 3 4 6 9 9 13 2 3 5 6 8 9 4 6 9 12 13 19 6 10 12 20 18 30 1 2 1 5 0 7-1 2-4 4-6 5-10 4-22 8-34 8z m-35-72c0 0 0 0-1-1-6 7-6 16-6 24 0 1 1 2 2 2 3 1 5 3 5 7 1 3-1 5-4 7-1 0-2 0-2 1-2 2 1 12 4 14 2-4 5-6 9-4 5 1 5 6 4 11 7 0 14-1 21 0 2 0 3-1 4-3 2-2 4-4 7-5 3-1 5 1 7 3 0 1 1 2 1 3 5-2 9-3 13-5-2-2-1-7-5-6-7 0-9-5-6-10 0-2 0-4 0-5-1-2-3-4-5-7-6 3-9 2-11-1-4-5 0-9 4-12-3-3-6-5-8-7-2-2-3-2-5-2-2 0-6-1-7-2-1-2-1-6 0-8 2-3 2-4 0-6-3 1-5 1-7 2-1 1-2 2-2 3 1 3 0 7-3 8-3 1-6 0-9-1z m17 7c4 1 6 2 6 6 0 3-3 5-6 5-4 0-5-2-5-6 0-3 2-5 5-5z m18 34c0 4-2 6-5 6-4 0-6-3-6-6 0-3 3-5 6-5 3 0 5 2 5 5z m-29-27c-2 1-4 3-5 3-1-1-2-3-3-4 1-1 2-2 4-3 1 0 2 2 4 4z"/>
    </symbol>

    <symbol id="icon-gp-ampersand-35" viewBox="0 0 512 512">
      <path d="m231 178c3 9 5 17 11 24 7 9 13 20 20 29 8 11 16 21 23 32 4 5 7 11 10 17 1 1 2 2 3 4 5-11 11-22 16-33 3-8 9-11 16-14 4-2 10 2 10 8 0 7 0 14-2 20-4 15-9 30-14 44-1 1-1 3 0 4 1 5 3 10 4 15 2 6 4 11 8 15 3 2 5 5 4 9-2 4-5 5-9 6-9 2-15-1-19-9-2-3-4-6-7-10-10 16-27 18-43 19-14 0-29 0-43-3-7-2-14-4-19-9 0-1-1-1-2-2-8-3-12-10-15-17-1-3-2-6-4-9-16-23-3-61 18-73 9-5 17-10 26-15-1-2-2-5-3-8-3-9-6-17-15-23-1-1-2-2-2-4-3-8-10-14-16-20-1-1-3-2-3-3-4-5-1-10 4-10 2 0 4-1 5-3 2-6 8-6 13-7 15 0 31 0 46 0 3 0 5 0 8 0 13 0 27 0 40 3 1 0 3 0 5 0 7-2 14 3 12 11-1 5-4 9-10 10-3 1-5 1-8 1-21 0-43 1-64 1-1 0-2 0-4 0z m9 161c13-2 23-3 34-8 7-3 6-10 9-14 1 0 0-2-1-2-9-13-19-25-28-38-6-9-12-17-18-26-1-3-3-3-6-1-4 3-8 7-12 10-6 5-7 11-7 18-1 9-2 18 0 27 0 0 0 0 0 0 1 8 2 16 2 23 0 4 2 5 4 6 8 2 16 3 23 5z"/>
    </symbol>

    <symbol id="icon-gp-ampersand-36" viewBox="0 0 512 512">
      <path d="m298 177c2 0 4 0 5 0 2 1 3 2 4 3-1 1-2 3-4 3-6 1-13 2-19 2-17 1-33 1-50 2-1 0-2 0-4 0 1 2 2 4 3 5 4 7 9 15 14 22 0 0 0 0 0 0 10 7 14 19 22 27 8 9 15 18 22 27 0 0 0 0 1 0 1-5 2-11 3-17 1-3 1-6 3-9 2-4 5-5 9-4 1 0 3 0 5-1 4-2 7-2 11 1 1 1 2 2 3 2 7 2 8 7 9 13 0 5-1 10-2 14-4 14-9 28-14 42 0 2 0 4 1 5 6 11 12 21 21 30 2 2 3 4 4 6 1 2 0 4-2 4-4 1-9 1-13 1-5 1-11 0-16 0-3 0-5 0-7-1-1 0-3-1-3-1 0-6-5-6-7-9-10 8-19 16-33 15-8 0-15 0-23-3-10-3-20-5-30-6-12-1-20-8-26-18-2-3-4-8-7-11-4-6-5-12-6-18-1-7-2-13-3-20 0-6 1-11-1-17-3-10 1-18 9-23 11-6 22-11 33-17 0 0 1 0 2-1-1-2-3-3-3-5-4-6-7-13-10-19-2-5-4-10-7-15-4-7-8-13-13-20-2-4 1-8 6-9 6 0 13 0 20 0 21-1 42-1 63-1 10-1 19-2 29-3 2 0 5 0 8 0 2 1 4 2 5 4 1 4 2 8 3 12 0 2 0 3-1 4-1 3-2 3-4 0 0-1 0-3-1-4-1-1-2-2-3-2-1 0-3 1-3 3-1 2-2 4-3 7z m27 160c1 4 1 7 1 11 2 0 5 0 8 0 1 0 1 0 1-1-3-3-7-6-10-10-3-5-6-11-9-17-4-5-5-10-2-16 1-1 1-3 2-5 2-6 4-12 6-18 4-9 9-18 8-28-1-3-1-6-6-7-2 6-4 12-5 18-3 15-12 28-11 44 1 5 1 11 4 15 3 5 9 9 13 14z m-88-85c-10 5-20 11-25 21-2 4-5 8-5 11 0 10 0 19 0 29 1 7 4 11 12 12 17 2 33 0 50-5 3 0 5-3 8-5 2-2 2-4 0-6-8-12-17-25-25-37-5-6-10-13-15-20z m-4-9c-6 2-10 4-15 6-3 1-5 3-8 5-3 5-7 8-11 12 0 1-1 2-1 3-1 4-3 9-3 13 1 10 2 19 3 29 1 1 1 2 2 3 1-6 1-11 1-16 0-5-1-10 0-15 3-12 10-22 20-29 5-2 9-5 14-7-1-1-1-2-2-4z m53 39c0 0 1 0 1 0 0-2 1-4 0-5-1-3-2-6-4-8-9-11-18-22-27-33-3-4-6-9-9-13-1-2-3-4-4-7-4-5-7-11-11-16-2-4-4-7-6-10-2-3-3-3-7-2 23 32 45 63 67 94z m-72-104c-1 0-1 1-1 2 1 0 3 2 4 2 11 0 22-1 33-1 10-1 20-2 30-2 3-1 5-1 8-1 0 0 0-1 0-1-7 0-14-1-21-1-7 0-15 1-22 1-10 1-21 1-31 1z m76 157c-12 10-27 12-41 14 5 1 10 2 15 1 5 0 9-1 14-3 5-2 10-5 15-8-1-1-2-2-3-4z"/>
    </symbol>

    <symbol id="icon-gp-ampersand-37" viewBox="0 0 512 512">
      <path d="m222 224c-7-11-15-21-21-32-5-6-9-13-13-21-2-3-2-8-2-12 0-3 3-4 7-4 11 0 23 0 34 0 17 0 34-1 50-4 7-1 15 0 22 0 4 0 5 2 3 7 2 1 4 1 6 1 1 1 2 2 3 4-1 1-2 2-3 2-8 1-16 2-24 3-10 1-20 1-30 2 16 0 31-1 47-1 1 0 2-1 3-1 2 1 4 3 4 4 0 1-1 4-3 4-4 1-8 2-11 2-19 0-37-1-56-1-9 0-19 1-28 1-1 1-1 1-1 2 4 3 7 7 12 10 11 8 19 17 28 27 5 5 10 11 15 16 12 13 25 25 32 41 2 3 4 6 6 9 0 0 1 0 1 0 1-3 1-6 1-9 0-10 0-19 0-28 0-4 1-7 4-7 4 0 7 1 11 3 1 0 1 3 0 4-2 2-1 4-1 7 0 2-1 4-1 6-1 2-1 3-2 5 0 0 1 0 1 1 2-5 4-9 6-13 1-3 2-7 7-6 4 2 3 6 2 9-2 6-4 11-6 16-3 10-6 20-9 30 0 1 0 3 1 4 5 12 10 23 15 35 1 2 3 4 5 7 1 1 2 3 2 5 0 4-4 6-7 4-1-2-3-3-4-5-2-2-3-5-7-5-2 0-3-3-4-4-3-6-6-11-9-16 0 0-1 0-1 0 0 2-1 4-1 5 3 7 6 14 12 19 1 0 2 1 2 2 0 2 0 5-1 6-1 1-4 1-5-1-5-5-9-10-13-16 0-1-1-2-2-4-1 1-2 2-3 2-2 3-5 5-8 8-9 8-20 14-33 13-14 0-27 2-41-2-12-4-23-10-30-21-7-11-11-23-11-36 0-13 1-26 1-39 0-1 0-2 0-3 7-17 17-30 36-33 4-1 8-2 12-2z m69 96c-6-10-12-20-18-30-8-15-17-29-29-41-2-1-3-2-6-2-6 3-12 4-18 7-5 1-9 5-11 9-5 8-7 16-7 25 0 14 2 27 8 40 2 3 5 7 9 8 6 1 11 2 17 2 5 0 11-1 17-1 15 0 25-9 38-17z m-82-83c0 0 0 0-1-1-1 1-1 1-2 1-8 4-14 8-18 16-4 7-6 14-5 22 0 2 0 3 0 5 0 15-1 30 6 44 3 6 5 11 11 15 17 14 38 13 58 10-13 0-26 1-39-4-4-1-8-3-12-6-5-6-9-12-12-20-2-7-3-13-3-20 0-4 0-8-1-11-3-12-1-23 3-34 2-5 5-10 10-13 2-1 3-2 5-4z m-6 17c8-10 21-10 32-15-2-4-5-1-7-1-11 2-19 7-25 16z m46-20c12 12 23 25 34 38 1 0 1-1 1-1-10-14-21-27-35-37z m49 79c2-4 0-6-2-9-5-7-9-13-14-20-1-1-2-2-3-3 0 0 0 0 0 1 6 10 12 20 19 31z m-58-89c1 0 1-1 2-1-5-5-9-10-14-14 0 0-1 0-1 1 4 5 9 10 13 14z m52-64c0 0 0-1 0-1-5 0-11 1-16 1 0 0 0 1 0 1 5 0 11 0 16-1z"/>
    </symbol>

    <symbol id="icon-gp-ampersand-38" viewBox="0 0 512 512">
      <path d="m256 245c3 4 6 7 9 11 4 6 7 12 11 18 3 4 6 8 9 12 0 0 1-1 1-1 0-7 1-14 0-21-1-9 6-14 15-11 0 0 1-1 2-2 4-3 9-1 9 3 1 14 2 28 3 42 0 5-1 11-2 17 0 1 0 2 0 3 3 4 5 8 8 12 4 8 10 15 14 22 3 4 1 9-4 9-4 0-6 0-8 4-2 4-10 2-14-3-2-4-5-9-8-13 0-2-1-3-2-4-12 9-26 12-39 14-11 2-22 4-33 1-13-3-25-8-34-19-4-5-8-9-11-14-7-11-8-23-5-36 1-6 2-11 4-16 4-10 12-17 22-22 3-1 7-3 10-5 2-1 3-2 1-4-4-8-8-16-13-24-1-2-1-3-3-5-5-7-9-15-9-25 0-5 2-8 6-12 2-2 3-4 5-6 8-13 19-21 34-22 16-1 31 0 45 6 7 3 14 7 21 11 0 0 0 0 1 0 14 8 14 21 14 35 0 2-2 4-3 6-9 13-21 23-35 29-8 3-15 7-21 10z m-20 94c5-1 10-1 16-2 12-2 21-8 28-19 1-1 2-3 1-5-5-5-9-10-13-14-13-14-27-27-40-40-1-2-2-2-4-1-6 5-12 10-18 15-1 1-1 3-2 5-6 11-3 23-1 34 2 13 18 28 33 27z m23-165c-9 1-18 2-27 3-7 0-13 3-18 8-2 2-2 4-1 6 2 5 5 11 7 16 1 1 2 2 3 4 3 4 7 9 11 14 3 5 3 5 9 3 1-1 2-1 4-1 16-4 28-14 39-26 4-3 6-7 8-11 1-1 1-4 0-5-2-5-5-8-10-9-9-1-17-1-25-2z"/>
    </symbol>

    <symbol id="icon-gp-ampersand-39" viewBox="0 0 512 512">
      <path d="m300 345c-2 1-4 2-5 3-8 6-19 7-29 9-20 3-40 1-59-5-10-3-18-8-25-15-6-7-9-15-9-24-1-17 1-33 5-50 2-10 5-20 14-27 7-5 14-9 22-14 0 1 0 1 0 0-4-6-8-12-12-18-3-5-7-11-14-14-1-1-2-3-2-4-1-8-1-15-2-23 0-1 0-3 1-4 1-4 3-7 8-7 11 0 22 0 33 0 12 0 23 1 35 0 12 0 25-1 37-2 6-1 9 1 9 7 1 5 1 10 1 15 0 6-2 8-8 8-12 0-24 0-35 0-13 0-25 1-38 2 0 1 1 3 2 3 4 7 9 14 14 21 2 3 4 6 5 10 2 6 5 11 8 16 5 8 10 17 15 25 5 8 11 16 17 25 0 0 1 0 1 0 1-5 2-9 3-13 2-9 5-18 8-27 1-4 4-5 8-4 5 1 10 1 16 2 5 0 8 2 8 8 0 1 0 3-1 5-2 8-4 15-6 23-3 10-5 20-8 30 0 1 0 3 0 4 3 6 7 12 10 18 4 7 9 14 11 21 2 8 1 12-8 13-4 0-9 0-13 0-5 0-8-4-11-8-2-3-4-6-6-9z m-62-96c-5 2-9 4-12 6-9 7-12 18-18 27 0 1 0 2 0 2-3 9-1 18 1 28 0 4 3 5 6 7 13 5 27 4 40 3 6 0 11-2 18-3-14-23-27-45-35-70z m-52 27c-2 10-2 20-2 30 0 0 1 1 1 1 1-1 1-1 1-2 0-9 0-19 0-29z m72 58c-15-2-30 0-44-4 3 1 6 3 9 3 11 1 23 1 35 1z m-36-139c-1 0-1 1-1 1 1 2 0 6 6 6-2-3-4-5-5-7z"/>
    </symbol>

    <symbol id="icon-gp-ampersand-40" viewBox="0 0 512 512">
      <path d="m215 226c-1 0-1-2-2-4-7-11-14-22-21-33-2-2-4-3-6-5-3-2-4-5-3-9 0-4 0-8 0-11 0-4 4-5 7-6 6 0 11-1 17-1 8-1 17-1 25-1 11-1 23-2 35-2 5 0 10 1 16 1 4 0 9-1 13-2 9-1 13 2 13 10 0 4 0 7 0 10 0 4-2 6-6 6-6 1-11 1-17 1-20 1-40 2-60 3 0 0 0 0-1 0 22 36 42 72 71 103 2-11 8-22 7-34 0-6 2-7 8-7 3 0 6 0 8-1 6-3 13 3 13 9 0 3-1 6-2 9-6 14-7 30-9 46-2 8-1 14 4 21 5 5 8 11 11 17 5 8 2 12-7 12-4 1-7 1-11 3-5 1-7 0-10-5-2-3-4-6-6-8-5 3-9 6-14 8-5 3-11 4-17 5-8 1-16 2-23 2-10 1-20 2-30-3-10-4-20-9-29-14-8-5-12-14-14-23-2-13-2-27 1-40 1-7 1-15 2-22 1-6 3-11 5-16 2-4 6-7 10-10 7-3 14-6 22-9z m46 108c8 1 16-1 22-5 3-2 3-4 1-7-7-13-15-26-24-38-7-8-13-16-19-25-1-1-4-4-5-3-7 1-14 3-20 6-7 3-11 9-11 18 0 10-1 20-1 30-1 11 5 19 15 20 14 3 28 3 42 4z m-11-88c0-1 1-1 1-2-6-9-12-19-18-29-1 1-1 1-2 1 6 10 12 20 19 30z m-66 65c0 12 7 26 12 26-4-8-8-17-12-26z m14-42c1-3 2-6 4-8 0-1-1-1-1-1-3 2-4 5-3 9z m28 127c20 0 39 0 59 1 4 0 9 1 13 3 6 2 6 8 3 14-9 12-17 25-25 38-1 1-2 3-3 5-2 5-7 8-12 6-6-3-12-6-17-10-11-8-18-18-25-28-4-6-6-12-7-19 0-7 5-11 14-11 0 0 0 1 0 1z m40 24c-3 0-6 0-10 0 1 3 1 5 5 5 3 0 5 0 5-5z m21-313c-1 3-2 6-3 7-5 3-11 5-17 5-14 0-28 0-42 0-6 0-12 0-18-1-4-1-5-5-4-9 1-3 3-5 4-8 1-2 2-5 3-8 1-2 2-4 4-6 9-12 19-23 29-35 4-6 11-7 15-1 4 5 7 11 10 17 5 10 11 20 16 31 1 2 2 5 3 8z m-39-35c0 0-1 0-2 0 0 2-1 3-1 5 0 0 2 1 2 1 1-2 1-4 1-6z"/>
    </symbol>

    <symbol id="icon-gp-ampersand-41" viewBox="0 0 512 512">
      <path d="m384 253c-5 1-10 3-16 4 1-2 1-3 1-4 0-5 1-10 1-15-1-5-4-7-9-6-2 0-4 2-7 2-3 0-7 2-10 0-4-3-7-8-11-12 3-3 5-6 7-9 3-2 6-5 9-7 4-4 5-7 3-10-1-4-4-5-10-4-4 0-8 1-13 1-5 0-6 2-7 7 0 5 0 10 0 15-2 0-5 1-8 1-13 0-25 0-38 1-4 0-5-1-6-5-1-5-4-10-6-16 0 0 0-1-1-3 6 1 11 1 15 2 9 1 18 3 26 0 9-4 18-8 26-12 4-2 4-6 1-9-7-7-14-13-21-20-1-1-3-1-4-1-7 0-13 0-19 0-1 0-3-1-3-2-3-9-6-18-9-27 1 0 2-1 3-1 11-2 22-4 33-5 7-1 10-5 7-12-2-6-5-13-8-19-2-3-4-6-7-8-5-5-9-5-13 1-8 11-16 23-24 34-1 1-1 2-2 3-5 3-6 9-9 14-3 6-5 11-8 16-9-9-18-18-27-26-1-2-2-3-3-5-3-5-7-5-11-1-8 8-14 16-18 26-1 1-2 1-3 2 0-1-1-1-2-2-2-6-4-12-7-18 0-2-1-4-2-6-4-4-8-4-12-1-7 9-12 19-12 30 0 3 2 5 5 6 4 0 7 0 11 0 5 1 11 2 16 2-1 12-1 23-1 34-5-2-11-3-15-5-5-2-10-3-15-3-6-1-7 0-7 5-1 3-1 6-2 8-3 5-6 11-8 16-2 7 2 11 9 10 3-1 6 0 10 0-2 7-4 13-7 18-7 9-6 19-7 29-1 10 0 21 0 31-2-1-5-3-7-5-6-4-10-2-11 5-1 6-1 13 3 19 2 5 6 6 10 2 3-2 6-4 8-6 1-1 3-1 4-1 7 1 13 3 20 5 2 0 3 1 3 4 2 5 3 11 5 17 1 3 2 6 4 9-5 1-9 3-14 4-3 1-6 2-7 6 0 4 2 7 5 9 7 5 13 10 20 15-2 2-3 3-4 3-3 3-7 6-11 9-2 2-4 4-2 7 1 3 3 4 6 4 4 1 9 1 13 1 6 1 12 1 18 1 0 2-1 3-1 5-2 5-3 11-5 16-2 7 0 11 7 11 6-1 12-1 18-2 5-1 7-5 5-9-2-3-4-7-7-9-3-4-4-9-5-14 16-1 31-5 46-2 0 2-1 5-2 8-1 3 1 6 4 7 8 0 16 1 23 2 5 0 7-3 6-7-3-5-5-10-7-15 1-1 3-1 5-1 9 1 17 2 26 3 4 1 4 2 4 5-1 7 1 10 8 9 5 0 11-1 16-3 5-1 7-6 4-10-2-2-4-3-6-4-9-6-14-14-18-24-1-1-1-2-1-3 7-1 13-1 19-2 7-2 8-5 4-11-2-4-3-7 0-11 1-1 1-3 1-4 1-9 1-17 1-26 0 0 1-1 1-2 2 1 4 1 6 2 3 1 7 0 7-3 2-7 0-20-7-25-4-3-8-8-13-12 6-3 11-5 17-7 1-1 2 0 3 1 5 7 13 11 21 14 5 2 8 0 9-5 1-5 1-11 1-17 0-6-2-8-8-7z m-76-87c4 3 7 6 11 9-4 2-7 3-11 5 0-4 0-9 0-14z m-146-23c-1 0-3-2-2-3 2-5 4-10 6-16 0 0 1 1 2 1 2 5 4 11 7 18-5 0-9 0-13 0z m141 88c1 1 1 1 1 2 2 6 2 6-4 6-2-1-3 0-6 0 3-3 6-5 9-8z m-13-4c-2 3-5 7-8 12-1-1-1-1-2-1-1-4-2-7-3-11 5 0 11 0 13 0z m-132-36c10 3 21 7 31 11-6 3-13 6-20 9-4-6-8-12-12-19 0 0 0-1 1-1z m-8 102c0-8 0-15 0-23 4 5 8 10 12 15-3 3-7 5-12 8z m18-20c-4-5-7-9-10-13 4-1 8-2 12-3-1 5-2 10-2 16z m-2-50c8-4 16-7 25-11-4 10-8 19-12 29-5-7-9-12-13-18z m37 165c-3-12-7-22-11-34 9 4 18 7 27 11-7 6-7 17-16 23z m49 1c-2 0-3 0-5 0-2 0-4 0-6 0-7 1-7 1-8-6 0-3-1-6-1-9 0-1 0-1 1-1 6 5 13 10 19 15 0 0 0 1 0 1z m-9-22c11-1 12-1 14 11-5-4-9-7-14-11z m32 17c-2-6-5-11-7-17 6-4 24-3 32 0-8 6-16 11-25 17z m45-27c-1 0-2-1-3-2-2-4-4-7-7-10-6-7-9-7-16-2-8 6-16 10-26 11-19 3-37 2-55-4-8-2-15-6-22-10-7-3-8-10-9-17-3-18-4-37-2-55 1-11 6-20 17-24 5-2 10-5 15-8 1 0 3-1 5-2 4-1 5-5 3-8-5-9-11-17-16-25-4-5-8-11-12-16-1-1-1-3-1-4 0-5 0-11 0-16 0-3 1-3 3-4 16-3 32-3 47-1 8 0 15 1 23 2 10 1 20 1 29 2 4 0 5 1 5 4-1 5-1 10 0 15 0 2-1 3-4 3-6-1-12-1-18-2-9 0-18 0-27-1-10 0-19-1-28-1-4-1-6 2-5 5 2 4 4 7 6 10 8 10 16 20 24 30 1 2 2 3 3 5 3 5 7 10 10 16 3 5 6 11 9 17 4 7 7 14 11 21 2 4 6 3 9 4 3 0 4-3 5-5 3-5 5-10 8-15 2-5 5-11 7-16 1-4 2-6 6-5 5 1 10 1 15 2 0 1 0 3-1 4-3 12-4 24-9 36-3 5-4 11-6 17 0 3 0 6 1 8 5 9 11 18 16 27 2 4 4 8 6 14-6 0-11 0-16 0z m-60-142c-4 0-7-1-10-1 2-4 4-7 6-10 0 0 1 0 1 0 1 3 2 7 3 11z m76 115c0 0-1 0-1 0-3-5-7-10-10-15 4-2 7-3 11-4 0 6 0 13 0 19z m10-37c-7 3-13 6-20 10 2-8 5-14 7-22 5 4 8 8 13 12z m-9-28c1-5 2-8 3-13 4 3 7 5 11 7-5 2-9 4-14 6z m46 7c-4-2-7-4-10-6 0-1 0-1 0-1 3-1 6-2 10-3 0 4 0 6 0 10z m-153-162c1 0 2 0 3 0 8 1 16 1 24 1 3 0 6-2 6-6-1 0-1-2-1-2-5-7-9-14-13-21-5-6-10-6-14 0-3 5-7 11-10 16-5 7-3 11 5 12z m90 39c2 2 4 3 6 3 3 1 7 1 10 1 0 0 0 0 0 0 3 0 6 0 10 0 4-1 6-3 6-7 0-6-2-11-5-16-3-5-8-6-13-2-4 4-8 7-12 10-5 4-5 6-2 11z m62 180c-5 0-11 0-16 0-6 1-9 8-5 12 4 3 9 6 13 9 2 1 5 1 6 0 4-4 7-9 7-14 0-5-2-7-5-7z m-235 41c-2-4-6-4-9-1-5 4-6 10-6 15 0 4 0 8 3 10 5 2 8-2 11-4 3-2 8-5 7-9-1-4-3-8-6-11z m130-67c-5-7-10-14-16-20-9-11-17-22-26-33-1-1-4-2-5-2-3 1-6 3-9 5-3 2-6 6-8 9-3 5-6 10-7 15-2 11-3 22-3 33 0 11 7 20 18 22 6 2 12 2 19 2 0 0 0 0 0 0 3 0 6 0 9 0 11-1 22-3 32-8 5-1 7-5 5-8-2-5-5-11-9-15z m-28 19c0 2-3 1-5 2-3-9-6-16-8-24 0 0 1-1 1-1 7 3 15 6 22 9-3 5-6 10-10 14z"/>
    </symbol>

    <symbol id="icon-gp-ampersand-42" viewBox="0 0 512 512">
      <path d="m360 298c-1 0-1-1-1-1 10-17 10-21-2-32 7-7 11-14 6-24-5-8-12-9-21-7 3-5 5-10 8-15 6-7 12-14 17-21 5-7 4-15-1-21-5-6-13-8-21-4-4 3-8 6-13 8-1 1-2 2-3 1-3-2-8-3-9-9-1-4-1-6 2-9 5-7 10-13 11-21 2-7 0-14-5-18-6-5-13-4-19-1-4 2-7 5-10 7-2 1-4 2-5 3-3-3-7-5-10-7-1-1-1-2-2-3-5-8-13-10-22-5-1 1-2 2-4 3 0-3 0-6 0-8 0-8-4-14-10-16-7-2-13 0-18 5-6 7-10 15-11 24-1 2-1 3-1 5-9-3-15 1-20 7-5 5-9 10-13 16-7 8-11 17-5 27-5 4-10 9-15 13-5 4-8 10-7 16 1 4 4 8 6 12 0 0-1 2-2 3-5 6-11 12-15 19-6 10-1 21 8 24 0 0 0 0 1 1-1 1-2 3-3 4-4 6-9 12-10 20-2 7 2 14 7 17 6 3 14 2 19-2 1-1 1-3 2-4 2 2 3 4 4 5 2 1 2 3 1 5-2 4-4 7-5 11-4 13 1 21 13 24 1 0 2 1 2 2 2 12 13 18 26 15 4 0 8-2 12-3 0 0 0 1 0 2-2 7 0 14 6 17 6 4 12 4 19-1 1 0 2 0 3 0 10 6 19 4 25-5 1-3 2-5 4-8 12 10 16 10 33-2 0 1 1 2 1 3 3 7 9 11 17 10 6 0 11-4 14-9 9-15 17-30 25-45 5-10 3-23-9-28z m-26 59c-6 0-11-1-16-1-4 0-6-4-8-7-2-2-4-5-5-8-3 2-5 2-7 4-5 4-12 5-19 6-20 4-40 2-59-3-10-3-18-8-25-15-5-6-8-13-8-20-1-19 1-37 6-55 3-12 10-20 21-26 4-2 7-3 10-5-5-7-9-15-14-22-2-3-5-5-8-7-2-2-3-3-4-5 0-7-1-14-1-22 0-7 3-10 11-10 19 0 37 1 56 0 13 0 27-1 40-2 4-1 7 1 8 6 1 5 1 11 1 16 1 5-3 8-8 8-14 0-28 0-41 0-7 0-15 1-22 1-1 0-2 0-4 0 1 2 1 3 2 4 4 6 9 11 13 18 3 4 4 8 6 13 1 3 3 6 4 8 4 6 8 11 12 17 5 8 10 17 15 26 1 1 2 3 4 5 1-3 1-5 2-7 3-9 5-19 8-28 1-5 5-7 10-5 4 1 7 1 11 1 8 0 11 3 10 11-2 8-4 16-6 23-3 9-5 18-8 27 0 2 0 4 1 5 3 6 6 12 9 17 4 7 7 13 10 20 3 6 0 11-7 12z m-107-86c-2 3-3 6-5 9-1 2-2 4-2 6-2 7 0 15 1 23 0 4 3 5 6 7 13 4 26 3 39 3 4-1 8-2 13-3-13-21-24-41-32-63-10 3-16 10-20 18z"/>
    </symbol>

    <symbol id="icon-gp-ampersand-43" viewBox="0 0 512 512">
      <path d="m287 292c2-7 5-15 7-22 0-2 1-4 1-6 2-4 6-7 10-5 9 2 14 11 11 19-3 10-6 21-9 32-1 2 0 3 2 5 7 7 15 14 23 20 4 4 5 9 5 14-1 6-12 12-17 10-5-3-9-5-13-8-4-2-8-5-12-7-2-2-3-1-5 0-7 5-13 10-20 14-11 7-24 6-37 5-2 0-4 0-6 0-25 0-40-15-51-36 0-7-1-14-1-21 1-11 6-18 12-26 7-8 13-16 21-22 2-1 2-2 1-4-4-7-9-14-12-22-6-14-9-29-6-44 1-8 5-15 9-22 1-3 6-5 9-7 5-3 10-5 15-8 8-4 16-2 24-1 11 0 19 5 25 14 2 3 4 6 6 9 5 7 6 14 5 22-2 18-10 33-24 45-3 3-6 7-10 10-1 1-2 3 0 4 3 4 6 8 10 12 8 8 16 16 24 25 1 0 1 1 2 2 0 0 1 0 1-1z m-59-16c-2 2-4 4-6 6-10 10-15 22-16 35 0 3 1 5 3 6 7 3 13 6 20 9 13 7 27 4 40-1 4-1 4-2 1-6-5-5-9-11-14-17-9-11-19-21-28-32 0 0 0 0 0 0z m8-42c6-7 12-14 17-22 3-4 5-9 6-14 2-14-4-21-19-19-4 1-9 4-13 7-6 3-9 9-8 16 1 13 5 24 17 32z m-19-6c0-4-3-7-7-7-4 0-7 3-6 7 0 4 3 7 7 7 3 0 6-4 6-7z m-11-29c-4 0-7 2-7 6 0 4 3 6 7 6 4 1 7-2 7-6 0-3-3-6-7-6z m25-32c0-3-3-5-6-6-3 0-7 3-7 7 0 3 3 6 6 6 4 0 7-3 7-7z m-20 182c4 0 7-3 7-6 0-3-2-5-5-5-3 0-7 2-7 6 0 3 2 5 5 5z m100-16c0-4-3-6-6-6-3 0-5 2-5 5 0 4 3 7 6 7 3 0 5-3 5-6z m-44-150c3 0 6-2 6-6 0-3-3-6-6-6-3 1-6 3-6 6 0 4 3 6 6 6z m15 120c0-4-3-7-7-7-3 0-5 2-5 5 0 3 3 6 7 6 3 0 4-2 5-4z m-35-36c0-3-2-5-6-6-3 0-6 3-6 6 0 3 3 6 6 6 3 0 6-2 6-6z m-37 9c3 0 5-3 5-6 0-3-2-6-5-6-3 0-6 3-6 6 0 3 3 6 6 6z m-7 13c0-3-2-6-5-6-3 0-6 3-6 6 0 3 3 6 6 6 3 0 5-3 5-6z m-1 43c0-3-2-5-5-5-3 0-6 2-6 5 0 3 2 6 5 6 3 0 6-3 6-6z m39 19c0-3-3-6-7-5-3 0-5 1-5 4 0 3 3 6 6 6 3 0 6-2 6-5z m23-68c0-3-3-5-6-5-3 0-5 3-5 5 0 3 2 6 5 6 3 0 6-3 6-6z m-15-123c-3 0-6 2-6 5 0 3 2 6 5 6 3 0 6-3 6-6 0-3-2-5-5-5z m22 43c3-1 5-3 5-6 0-3-2-5-5-5-3 0-6 2-5 5 0 3 2 6 5 6z m-45 51c3 0 5-2 5-5 0-3-3-6-6-6-3 0-5 3-5 6 0 3 3 5 6 5z m-36 53c-3 0-5 3-5 6 0 3 2 5 5 5 3 0 5-3 5-6 0-3-2-5-5-5z m21-126c0-2-2-5-5-5-3 0-5 2-6 5 0 3 3 5 5 5 3 0 6-2 6-5z m87 139c0-3-2-6-5-6-3 0-5 3-5 6 0 3 3 5 5 5 3 0 5-3 5-5z m12-44c0-2-2-5-5-5-3 0-5 2-5 5 0 3 2 5 5 5 2 0 5-2 5-5z m-35 69c3-1 5-2 5-5 0-3-2-5-5-5-3 0-5 1-5 4 0 3 2 6 5 6z m47-5c-3 0-4 2-5 5 0 3 2 5 5 5 3 0 5-2 5-5 0-3-2-4-5-5z m-63 10c-1-4-2-5-4-6-3 0-5 2-5 5 1 2 3 4 4 4 2 0 4-2 5-3z m-7-114c-2-2-3-3-5-3-1 0-3 2-3 3 0 1 2 3 3 3 1 1 3-1 5-3z m8-22c-2 2-3 3-3 5 0 1 2 3 3 3 1 0 3-2 3-3 0-1-2-3-3-5z m38 87c2-2 3-3 3-4 0-1-2-3-3-3-1 0-2 2-2 3 0 1 1 2 2 4z"/>
    </symbol>

    <symbol id="icon-gp-ampersand-44" viewBox="0 0 512 512">
      <path d="m362 194c-3 15-7 29-20 37-5 3-10 4-14 5-6 1-11 2-14 5 4 5 8 10 12 15 2 4 3 9 4 14 0 5-1 11 0 16 0 9-1 17-5 24-3 6-5 13-8 18-12 16-28 26-48 29-23 4-45-1-66-7-14-4-26-12-35-23-11-14-20-30-18-48 1-15 3-29 13-41 4-5 5-8 3-14-3-10-3-21 1-31 1-4 2-8 4-12 3-8 8-14 16-18 19-11 39-12 59-5 7 2 13 8 18 14 6 7 5 17 2 25-6 17-20 21-37 13 0 0-1 0-1-1-4-2-6-7-5-10 1-3 5-4 10-5 5 0 9 0 14-1 2 0 4-2 4-3 0-1-1-4-2-5-5-4-11-6-18-6-8 0-16 1-24 2-10 2-14 7-15 17-1 4-3 9-4 14-1 6 2 9 8 9 7-1 14-1 20-1 9 1 15 7 19 15 3 7 0 16-7 20-15 9-33 7-45-5-1-1-1-1-3-2-2 5-5 10-7 16-5 21 0 35 19 46 19 10 39 14 59 12 16-1 31-7 45-17 3-2 6-7 6-12 2-9 2-19 3-28 0-4-8-13-11-13-2 0-5 1-7 3-4 3-7 8-10 11 1 1 1 1 1 2 5-3 10-4 15-1 5 2 8 7 8 13-1 6-3 11-9 12-10 3-21 4-30-1-4-2-8-7-9-11-3-5-3-11-1-17 5-11 10-22 20-28 7-4 14-7 21-11 3-2 7-4 10-5 6-3 13-6 19-7 8-1 11-5 13-12 1-7 0-10-5-13-3-2-5-1-7 2-1 4-3 7-7 7-5 1-7-2-9-6-5-13-1-25 15-28 2 0 3 0 5 0 9-2 17 3 23 9 5 5 11 11 12 19 0 1 0 3 0 4z"/>
    </symbol>

    <symbol id="icon-gp-ampersand-45" viewBox="0 0 512 512">
      <path d="m362 160c-6 0-13-1-19-1-3 0-7 1-10 3-5 4-6 11-5 17 1 8 6 14 13 15 6 1 14-5 16-12 0-2 1-4 1-6 5 2 9 3 13 4 3 2 4 4 4 8-1 11-8 18-19 21-24 4-46 13-65 28-14 11-23 26-24 45 0 14 14 26 28 25 2-1 5-2 7-1 7 1 12-2 16-6 7-7 4-19-4-23-2-1-3-2-4-4-4-4-7-5-12-3-5 3-7 7-9 12 0 1-1 3-1 4-1 0-1 0-2 1-1-3-3-5-3-7 1-5 2-9 3-13 4-10 13-13 21-17 7-2 11-1 16 4 0 0 1 1 1 2 12 8 15 19 13 32-2 13-10 21-18 29 0 1 0 1-1 1-10 3-20 7-30 10-17 3-34 3-50 0-4 0-7-1-11-3-9-5-17-11-27-14-12-4-19-13-26-22-6-9-7-20-1-29 5-6 13-10 20-15 1 0 3 0 4 1 5 3 9 6 14 9 8 6 18 7 28 6 9 0 17-7 18-15 3-10-1-18-10-23-6-4-12-5-19-4-5 0-10 1-15 2 0-5 0-10 0-14 1-10 3-20 10-28 6-6 12-10 20-9 7 1 14 2 20 4 5 1 10 4 14 7 1 0 1 2 1 3-2 8-8 10-16 8-6-2-12-3-18-5-1 0-4 1-4 2-1 1-2 4-1 5 1 3 3 5 6 7 9 5 19 9 31 9 9 0 16-3 20-11 4-9 5-18 1-27-1-1-1-1-2-2-8-5-15-11-25-12-15-2-29-2-44 0-23 4-42 30-42 49 0 8 2 16 2 24-6 4-13 8-20 11-12 6-19 16-23 28-7 22-1 40 12 57 6 7 15 11 23 16 26 18 55 20 85 18 17-1 33-8 48-15 4-2 8-5 11-8 5-4 9-10 14-14 5-5 8-10 9-17 2-7 3-14 4-22 2-15-3-28-15-37-1-1-2-3-4-4 4-1 7-2 10-3 9-2 17-4 26-7 10-4 17-12 21-22 3-7 2-14 3-21 2-15-13-31-28-31z m-143 68c8-2 16-1 23 4 1 0 2 2 1 3 0 1-2 3-3 3l-5-2-6 1c-4-2-7-5-11-8 1 0 1-1 1-1z m-11-94c5 0 9-4 9-9 1-5-3-9-8-9-5 0-9 4-9 9 0 5 4 8 8 9z m201 180c-5 0-8 4-8 8 0 4 4 8 8 8 4 0 8-4 8-8-1-5-4-8-8-8z m-67 9c-4 0-8 3-8 7 0 5 3 8 8 8 4 1 7-3 7-7 1-4-3-8-7-8z m30-71c-4 0-8 4-8 8 0 4 4 8 8 8 4 0 8-4 8-8 0-4-3-8-8-8z m-226 106c-4 1-7 4-7 8 0 4 4 8 8 8 4-1 7-4 7-8 0-4-4-8-8-8z m288-132c-4 0-9 4-8 8 0 4 2 6 6 6 5 0 9-4 9-8 0-4-3-6-7-6z m-336 79c-3 0-7 4-7 7 0 4 3 8 7 8 4 0 8-4 8-8-1-3-4-7-8-7z m73-108c3 1 7-3 7-7 0-3-3-7-7-7-4 0-7 3-7 7 0 4 3 7 7 7z m41 93c0 4 4 7 8 7 4 0 7-3 7-7 0-4-4-7-8-7-4 0-7 3-7 7z m0 93c-4 0-7 3-7 7 1 4 4 7 8 7 3 0 7-4 6-7 0-4-3-7-7-7z m80 12c-4 0-7 3-7 7 0 4 3 7 7 7 4-1 7-4 7-7 0-4-3-7-7-7z m-146-249c3 0 6-4 6-7 0-3-2-6-6-6-4 0-7 2-7 6 0 4 3 7 7 7z m169-14c4 0 6-2 6-6 0-3-3-6-6-6-3 0-6 2-6 6 0 3 3 6 6 6z m-199 102c-4 0-6 2-6 5 0 4 3 7 6 7 3-1 5-3 6-6 0-4-3-6-6-6z m154-6c0 3 2 6 5 5 2 0 5-3 5-5 0-2-3-4-4-6-1 0-1 0-2 0-2 2-4 4-4 6z m-9-98c1-2 3-3 3-6 1-3-2-5-5-4-2 0-4 3-4 4-1 2 2 4 3 6 1 0 2 0 3 0z m151-9c0-1-3-4-5-4-1 0-4 3-4 5 0 1 2 3 4 6 3-3 5-5 5-7z m-142-55c1 0 3-2 6-4-3-2-4-4-6-4-1 0-4 3-4 4 1 1 2 3 4 4z"/>
    </symbol>

    <symbol id="icon-gp-ampersand-46" viewBox="0 0 512 512">
      <path d="m251 233c7 7 13 14 19 21 6 6 11 13 17 20 5-5 8-9 11-16 1-5 5-9 8-14 3-3 8-3 11 0 6 6 11 12 17 17 1 2 3 4 4 5 7 6 5 14-3 18 0 0-1 0-2 1-4 6-9 12-14 18 3 2 6 4 8 6 4 2 7 5 11 7 6 4 7 10 3 17-5 7-12 12-20 16-3 1-6 1-9-1-4-2-9-4-13-7-2-2-3-2-5 0-1 0-2 1-2 1-8 6-15 10-25 12-11 2-22 7-34 6-2 0-5 0-7-1-8-2-15-4-23-7-7-1-12-5-17-10-4-5-9-10-13-16-2-2-3-5-4-8-1-13-1-25 2-37 4-15 11-27 20-38 3-4 6-8 10-12 1-1 1-2 0-4-8-11-11-23-13-35-2-7 0-13 3-20 5-11 14-16 24-21 2-1 5-2 8-2 15 0 29 4 40 14 7 6 9 13 10 21 0 2 0 4 0 6 0 4-1 8-3 12-3 6-4 12-7 17-2 4-5 7-7 10-1 1-3 2-5 4z m-39 8c-3 4-6 7-9 11-5 7-9 14-13 21-7 13-7 26-6 40 0 1 0 3 1 4 6 7 11 14 18 20 8 6 18 9 27 10 3 1 6 1 9 1 6-2 12-3 18-5 10-3 19-8 25-18 1-2 1-4-1-5-2-2-4-4-6-6-2-2-3-2-4 0-3 3-6 6-9 9-4 5-9 9-15 10-7 1-13 2-20 1-8-1-14-3-20-7-9-7-14-16-12-28 1-11 6-20 12-29 3-5 6-10 9-16 3-7 3-7-2-12-1 0-1 0-2-1z m18 19c-1 2-1 3-2 4-2 4-4 9-7 13-5 6-8 13-11 20-2 6-2 12 4 17 6 4 12 6 18 6 9 0 16-2 21-10 2-2 4-5 7-7 1-1 1-2 0-4-5-7-9-13-13-20-5-6-11-12-17-19z m12-39c3-3 5-5 7-8 2-5 4-11 7-16 3-6 1-12 0-18 0-1-1-3-3-4-7-7-15-11-25-11-8-1-15 3-20 9-6 7-8 15-4 24 1 2 1 4 1 6 2 5 5 11 9 16 2-2 4-4 6-6 3-2 3-4 3-7-3-8-2-16-1-25 1-5 3-6 8-7 8-1 13 4 18 8 1 2 3 4 3 6 1 5 1 11-2 16-3 4-5 7-8 11-2 2-1 4 1 6z m39 67c-14-15-27-30-40-45-4 3-4 3 0 7 8 9 16 18 22 28 2 5 6 9 9 12 1 1 3 2 3 1 2 0 3-1 6-3z m38-20c-1 0-1 0-2 1-5 6-10 13-15 19 0 1 0 2 1 3 0 1 2 2 3 3 5-6 9-12 14-18 3-3 3-3 0-7 0 0-1-1-1-1z m7 61c-2-1-3-2-4-2-4-2-8-5-12-7-4-2-4-2-6 2 2 2 4 6 7 8 2 2 5 4 7 4 3-1 5-3 8-5z m-40-26c2 1 3 2 4 3 4 4 5 3 7-1-6-6-6-6-11-2z m-58-76c-5 4-5 5 0 7 3-3 3-4 0-7z"/>
    </symbol>

    <symbol id="icon-gp-grabarz" viewBox="0 0 512 512">
      <path d="m186 216l-30 80 8 0 7-20 37 0 7 20 9 0-31-80z m-12 53l16-41 15 41z m102-14c8-2 11-8 11-17 0-17-9-21-24-21l-29 0 0 79 31 0c15 0 24-7 24-22 0-11-5-18-13-19m-34-31l21 0c8 0 16 2 16 14 0 12-8 14-16 14l-21 0z m23 64l-23 0 0-29 23 0c8 0 16 3 16 15 0 12-8 14-16 14m60-72l-30 80 8 0 7-20 37 0 7 20 9 0-31-80z m-12 53l16-41 15 41z m136 19l46 0 0 8-56 0 0-7 46-65-45 0 0-7 54 0 0 7z m-380-30l8 0 0 35c-4 1-14 4-25 4-18 0-32-4-32-41 0-36 15-41 33-41 10 0 19 2 22 3l-2 7c-3 0-12-2-20-2-17 0-25 6-25 30l0 6c0 24 8 30 24 30 9 0 14-1 17-2l0-22-14 0 0-7z m361 38l-19-31c11-2 17-9 17-24 0-17-8-24-27-24l-28 0 0 79 8 0 0-30 20 0c1 0 1 0 1 0l19 30z m-49-37l0-35 20 0c11 0 19 2 19 18 0 15-7 17-19 17z m-233 37l-20-31c12-2 17-9 17-24 0-17-8-24-26-24l-29 0 0 79 8 0 0-30 20 0c1 0 1 0 2 0l18 30z m-50-37l0-35 20 0c11 0 19 2 19 18 0 15-7 17-18 17z"/>
    </symbol>

    <symbol id="icon-gp-partner" viewBox="0 0 512 512">
      <path d="m48 217l-28 0 0 78 8 0 0-29 20 0c18 0 27-7 27-25 0-17-9-24-27-24m0 42l-20 0 0-35 20 0c11 0 19 2 19 18 0 15-8 17-19 17m56-43l-31 79 8 0 8-19 37 0 7 19 8 0-30-79z m-13 53l16-41 16 41z m122-52l60 0 0 7-26 0 0 71-8 0 0-71-26 0z m121 0l8 0 0 78-7 0-44-65 0 65-7 0 0-78 7 0 43 64z m24 0l46 0 0 7-38 0 0 28 30 0 0 7-30 0 0 29 38 0 0 7-46 0z m115 78l-20-30c12-2 17-10 17-24 0-17-8-24-26-24l-29 0 0 78 8 0 0-29 21 0c0 0 0 0 1 0l18 29z m-50-36l0-35 21 0c10 0 18 2 18 18 0 15-7 17-18 17z m-214 36l-20-30c12-2 17-10 17-24 0-17-8-24-26-24l-29 0 0 78 8 0 0-29 21 0c0 0 0 0 1 0l18 29z m-50-36l0-35 21 0c11 0 18 2 18 18 0 15-7 17-18 17z"/>
    </symbol>
    <g>
    <use href="#icon-gp-grabarz" x="-120" y="-50" height="200"/>
    <use id="test" href="#icon-gp-ampersand-01" height="100" fill="#ff0000">
      <animate attributeName="href" begin="0s" dur="10s" fill="freeze" repeatCount="indefinite"
        values="
          #icon-gp-ampersand-01; #icon-gp-ampersand-02; #icon-gp-ampersand-03; #icon-gp-ampersand-04; #icon-gp-ampersand-05; #icon-gp-ampersand-06; #icon-gp-ampersand-07; #icon-gp-ampersand-08; #icon-gp-ampersand-09; #icon-gp-ampersand-10;
          #icon-gp-ampersand-11; #icon-gp-ampersand-12; #icon-gp-ampersand-13; #icon-gp-ampersand-14; #icon-gp-ampersand-15; #icon-gp-ampersand-16; #icon-gp-ampersand-17; #icon-gp-ampersand-18; #icon-gp-ampersand-19; #icon-gp-ampersand-20;
          #icon-gp-ampersand-21; #icon-gp-ampersand-22; #icon-gp-ampersand-23; #icon-gp-ampersand-24; #icon-gp-ampersand-25; #icon-gp-ampersand-26; #icon-gp-ampersand-27; #icon-gp-ampersand-28; #icon-gp-ampersand-29; #icon-gp-ampersand-30;
          #icon-gp-ampersand-31; #icon-gp-ampersand-32; #icon-gp-ampersand-33; #icon-gp-ampersand-34; #icon-gp-ampersand-35; #icon-gp-ampersand-36; #icon-gp-ampersand-37; #icon-gp-ampersand-38; #icon-gp-ampersand-39; #icon-gp-ampersand-40;
          #icon-gp-ampersand-41; #icon-gp-ampersand-42; #icon-gp-ampersand-43; #icon-gp-ampersand-44; #icon-gp-ampersand-45; #icon-gp-ampersand-46;
      "/>
      <animate attributeName="fill" begin="0s" dur="1.7391s" fill="freeze" repeatCount="indefinite"
        values="#2bc4b6; #30845f; #127269; #e83162; #3397c1; #d19700; #752fa4; #87835b"
        calcMode="discrete"
      />
    </use>
    <use href="#icon-gp-partner" x="120" y="-50" height="200"/>
  </g>
</svg>
